<?xml version="1.0" standalone="no"?>
<!DOCTYPE svg PUBLIC "-//W3C//DTD SVG 1.1//EN" "http://www.w3.org/Graphics/SVG/1.1/DTD/svg11.dtd" >
<svg xmlns="http://www.w3.org/2000/svg" xmlns:xlink="http://www.w3.org/1999/xlink" version="1.1">
<metadata></metadata>
<defs>
<font id="cherry_cream_sodaregular" horiz-adv-x="570" >
<font-face units-per-em="2048" ascent="1638" descent="-410" />
<missing-glyph horiz-adv-x="716" />
<glyph horiz-adv-x="0" />
<glyph horiz-adv-x="682" />
<glyph unicode=" "  horiz-adv-x="716" />
<glyph unicode="&#x09;" horiz-adv-x="716" />
<glyph unicode="&#xa0;" horiz-adv-x="716" />
<glyph unicode="!" horiz-adv-x="556" d="M82 72q0 28 18 47t43 31t54 18t51 6q20 0 49 -6t54 -18t43 -31t18 -47t-18 -47t-43 -31t-54 -18t-49 -6q-22 0 -51 6t-54 18t-43 31t-18 47zM94 308q10 12 18 76t15 153t13 193t10 198t6 165t2 97v58t-3 93t-11 89t-22 46l352 -2q-10 -2 -15 -19t-7 -23q-22 -88 -33 -199 t-15 -226t-5 -227t-1 -202v-54t2 -85t6 -83t12 -48h-324z" />
<glyph unicode="&#x22;" horiz-adv-x="846" d="M62 1508h318q-6 -10 -12 -56t-13 -111t-12 -138t-10 -139t-8 -114t-3 -60h-204q-10 104 -17 208t-17 210q-2 14 -4 42t-4 58t-6 57t-8 43zM468 1508h318q-6 -10 -12 -56t-12 -111t-12 -138t-10 -139t-8 -114t-4 -60h-204l-16 208t-18 210q-2 14 -4 42t-4 58t-6 57t-8 43z " />
<glyph unicode="#" horiz-adv-x="1426" d="M40 342l36 252q12 -6 45 -9t69 -4t69 -2t49 -1l52 304q-16 0 -49 -1t-68 -3t-67 -4t-46 -6l34 250q12 -6 45 -9t69 -4t69 -2t49 -1q10 68 19 136t9 138v23t-3 31t-9 28t-18 16h368q-26 0 -50 -51t-43 -116t-33 -125t-18 -80q144 0 288 6q10 66 19 133t9 135v23t-3 31 t-9 28t-18 16h368q-26 0 -49 -49t-42 -111t-32 -120t-17 -78q14 0 51 2t78 5t76 7t47 8l-54 -278q-8 6 -43 9t-76 6t-77 4t-48 1l-24 -144t-26 -144q16 0 54 2t79 5t78 6t49 9l-54 -278q-8 6 -43 9t-77 6t-79 4t-49 1q-14 -76 -27 -155t-13 -155v-24t8 -22h-278q14 12 29 62 t29 110t24 114t14 74q-44 2 -86 2h-86h-124q-14 -76 -27 -157t-13 -159v-24t8 -22h-278q14 12 29 62t28 109t23 113t14 74q-16 0 -48 -1t-67 -3t-67 -5t-46 -7zM524 576q74 2 147 3t147 5l52 300q-28 2 -55 2h-55h-182q-16 -78 -28 -155t-26 -155z" />
<glyph unicode="$" horiz-adv-x="1276" d="M-20 420q4 2 28 22t51 43t50 43t25 26q106 -68 232 -99t250 -31q12 0 53 2t85 10t79 20t35 34q0 28 -57 45t-142 33t-185 35t-185 50t-142 77t-57 116q0 86 44 149t110 108t145 73t149 42q0 10 -2 36t-5 53t-11 50t-20 27l356 -4q-10 -2 -18 -22t-14 -44t-9 -47t-3 -31 q68 -4 134 -17t117 -43t82 -81t31 -131q0 -42 -7 -84t-17 -82h-268q12 30 20 62t8 66q0 82 -49 114t-125 32q-42 0 -107 -9t-125 -30t-104 -59t-44 -94q0 -28 24 -50t61 -38t83 -28t90 -20t81 -13t57 -9q44 -6 116 -20t142 -38t121 -62t51 -94q0 -54 -45 -94t-108 -66 t-128 -41t-105 -19q0 -10 2 -32t5 -47t8 -46t13 -27h-358q6 8 11 28t9 44t8 46t4 32q-170 16 -332 66q-16 4 -44 15t-58 23t-57 21t-39 9z" />
<glyph unicode="%" horiz-adv-x="1882" d="M30 0q34 18 91 66t124 113t140 139t139 143t118 125t80 86q66 70 133 142t133 142q12 14 50 53t88 90t104 109t99 110t74 92t29 54q0 10 -6 10h424q-30 -2 -98 -53t-154 -129t-181 -172t-180 -182t-151 -158t-94 -100q-44 -48 -88 -94t-90 -92q-12 -12 -50 -51t-90 -91 t-108 -110t-103 -109t-77 -88t-28 -45h-328zM70 1182q0 84 47 140t117 90t151 48t147 14q64 0 144 -16t150 -52t118 -93t48 -137q0 -78 -49 -132t-121 -87t-153 -47t-143 -14q-66 0 -146 13t-149 46t-115 88t-46 139zM290 1184q0 -46 24 -76t59 -48t77 -25t78 -7q34 0 76 8 t80 26t63 47t25 71q0 44 -24 74t-60 50t-78 29t-78 9t-78 -8t-79 -27t-61 -49t-24 -74zM890 286q0 84 47 140t117 90t150 48t146 14t146 -16t150 -52t118 -93t48 -137q0 -78 -50 -132t-122 -87t-152 -47t-142 -14q-66 0 -146 13t-149 46t-115 88t-46 139zM1110 288 q0 -46 24 -76t59 -48t77 -25t78 -7q34 0 76 8t79 26t62 47t25 71q0 44 -24 74t-60 50t-78 29t-78 9t-78 -8t-78 -27t-60 -49t-24 -74z" />
<glyph unicode="&#x26;" horiz-adv-x="1276" d="M0 508q0 38 27 68t64 52t78 36t71 22q-20 12 -41 28t-39 37t-29 45t-11 50q0 84 42 146t106 107t140 73t146 42q0 12 -2 38t-5 54t-11 51t-20 27l354 -4q-10 0 -17 -20t-13 -45t-9 -48t-3 -31q68 -2 136 -14t122 -42t87 -82t33 -134q0 -42 -7 -84t-17 -82h-266 q26 64 26 128q0 82 -49 114t-125 32q-42 0 -107 -9t-125 -30t-104 -59t-44 -94q0 -54 52 -86t121 -48t138 -21t105 -5l-6 -132q-16 0 -56 -1t-93 -4t-110 -10t-104 -18t-78 -27t-31 -38t35 -34t78 -20t84 -10t53 -2q126 0 252 31t232 99q0 -4 23 -25t51 -44t52 -43t28 -22 q-12 0 -35 -8t-49 -18t-50 -19t-36 -13q-108 -38 -230 -60q0 -10 1 -35t4 -52t8 -50t13 -29h-356q6 6 11 26t9 43t7 44t5 31q-36 0 -87 5t-109 15t-115 27t-102 43t-74 60t-29 78z" />
<glyph unicode="'" horiz-adv-x="440" d="M62 1508h318q-6 -10 -12 -56t-13 -111t-12 -138t-10 -139t-8 -114t-3 -60h-204q-10 104 -17 208t-17 210q-2 14 -4 42t-4 58t-6 57t-8 43z" />
<glyph unicode="(" horiz-adv-x="862" d="M40 662q0 184 60 353t168 305t259 231t335 135v-172q-126 -50 -226 -138t-171 -201t-109 -243t-38 -262q0 -124 35 -243t104 -216t171 -162t234 -83v-164q-196 24 -348 86t-258 167t-161 255t-55 352z" />
<glyph unicode=")" horiz-adv-x="862" d="M0 -24q126 48 226 137t171 201t109 243t38 263q0 122 -36 241t-105 216t-170 162t-233 83v164q194 -22 347 -84t258 -167t160 -257t55 -352q0 -184 -59 -352t-167 -305t-259 -233t-335 -134v174z" />
<glyph unicode="*" horiz-adv-x="1134" d="M40 1132q20 -6 72 -11t110 -8t111 -5t77 -2h14q-12 18 -42 57t-64 80t-66 75t-50 44l218 96q4 -16 24 -54t45 -79t48 -78t35 -53q10 14 32 52t45 80t41 79t20 53l236 -114q-14 -6 -45 -37t-64 -70t-63 -74t-40 -49q24 0 75 3t108 8t107 11t68 12l-6 -222q-12 6 -61 12 t-106 11t-108 8t-69 3q10 -14 38 -48t61 -71t63 -67t42 -36l-236 -114q-2 14 -20 52t-41 80t-45 79t-32 53q-12 -16 -35 -53t-48 -78t-45 -79t-24 -54l-218 96q16 10 47 42t63 70t61 74t41 54q-64 0 -126 -4t-126 -10q-28 -2 -58 -4t-56 -10z" />
<glyph unicode="+" horiz-adv-x="1064" d="M40 738q16 -6 67 -10t111 -5t118 0t88 1q0 14 -3 60t-7 97t-10 94t-12 53l280 -6q-8 -8 -12 -50t-7 -91t-4 -94t-1 -57q18 0 75 2t119 5t116 8t66 11l-6 -246q-10 6 -63 11t-116 7t-119 3t-72 1q0 -16 1 -58t2 -89t5 -88t10 -53l-254 -4q8 12 12 51t5 84t1 89v68h-78 t-119 -2t-117 -5t-70 -9z" />
<glyph unicode="," horiz-adv-x="450" d="M10 -272q20 80 38 159t36 161q2 14 8 35t10 43t8 42t4 36l296 -46q-10 -8 -28 -42t-42 -79t-49 -98t-47 -100t-39 -82t-21 -47z" />
<glyph unicode="-" horiz-adv-x="1020" d="M40 738q14 -6 51 -9t79 -4t79 -1h55q22 0 77 1t125 2t147 4t145 6t117 8t63 11l-6 -246q-8 6 -44 10t-85 6t-107 3t-109 2t-91 1h-54h-90t-134 -1t-131 -5t-81 -10z" />
<glyph unicode="." horiz-adv-x="412" d="M40 100q0 28 18 47t43 31t54 18t51 6t51 -6t54 -18t43 -31t18 -47t-18 -47t-43 -31t-54 -18t-51 -6t-51 6t-54 18t-43 31t-18 47z" />
<glyph unicode="/" horiz-adv-x="1000" d="M-20 0q24 16 57 64t70 114t75 141t71 145t58 125t37 83q18 38 49 104t68 145t76 162t70 156t51 128t20 79q0 10 -2 18t-12 10h394q-28 -2 -71 -53t-92 -129t-99 -173t-94 -183t-76 -158t-46 -98q-16 -36 -45 -94t-64 -127t-70 -142t-64 -135t-48 -109t-19 -63q0 -8 4 -10 h-298z" />
<glyph unicode="0" horiz-adv-x="2220" d="M52 724q0 132 48 240t129 191t188 144t225 101t240 59t234 19t233 -20t238 -62t223 -105t185 -148t126 -193t47 -240q0 -126 -50 -228t-134 -183t-193 -140t-227 -98t-237 -58t-221 -19q-110 0 -231 18t-238 56t-223 97t-187 141t-128 189t-47 239zM384 726 q0 -142 68 -243t173 -166t234 -96t249 -31q76 0 159 14t164 43t154 72t129 102t89 133t33 162q0 134 -68 238t-173 175t-233 107t-246 36q-120 0 -249 -33t-237 -101t-177 -170t-69 -242z" />
<glyph unicode="1" horiz-adv-x="986" d="M102 1480l680 -6q-4 -12 -8 -23t-8 -23q-18 -64 -32 -165t-24 -209t-15 -209t-5 -167q0 -20 -1 -76t-3 -128t-1 -152t3 -148t9 -117t19 -57h-350q12 12 20 77t13 158t6 200t1 205t-1 174t-1 104q0 92 -1 184t-9 184h-67t-75 -1t-75 -4t-67 -11z" />
<glyph unicode="2" horiz-adv-x="1812" d="M122 0v204q80 22 204 61t263 94t279 125t252 153t182 180t70 205q0 80 -42 136t-107 89t-140 48t-141 15q-76 0 -153 -19t-141 -59t-104 -103t-40 -151q0 -30 5 -61t13 -63h-366q-14 50 -14 108q0 150 71 255t182 171t245 96t262 30q72 0 161 -11t178 -35t173 -62 t150 -92t105 -126t39 -162q0 -94 -45 -182t-118 -168t-168 -151t-193 -132t-192 -109t-168 -82q180 0 357 2t357 6q22 2 45 2t47 4l6 -206z" />
<glyph unicode="3" horiz-adv-x="1764" d="M30 446q0 42 12 83t38 77h348q-26 -38 -40 -81t-14 -89q0 -86 49 -138t121 -79t153 -35t145 -8q48 0 134 10t170 36t146 70t62 112q0 50 -38 86t-97 60t-131 39t-142 23t-130 10t-92 2v202q40 0 97 4t120 16t125 31t111 49t80 72t31 100q0 62 -36 103t-90 66t-114 36 t-108 11q-74 0 -138 -8t-115 -32t-88 -70t-59 -122l-366 -4q40 124 118 209t179 136t218 73t237 22q82 0 161 -9t157 -31q62 -16 133 -47t131 -77t99 -106t39 -134q0 -66 -33 -122t-82 -100t-109 -78t-114 -56q58 -16 126 -44t126 -69t96 -96t38 -127q0 -90 -56 -161 t-137 -123t-173 -85t-166 -49q-84 -18 -167 -26t-169 -8q-92 0 -195 11t-201 41t-184 82t-144 132q-34 46 -53 99t-19 111z" />
<glyph unicode="4" horiz-adv-x="1698" d="M40 416v206q134 112 264 224t258 228q90 84 179 166t165 178q4 6 20 27t16 25q0 8 -8 10t-12 2h20q118 -2 235 -3t237 3q-34 0 -54 -18q-18 -14 -30 -62t-20 -113t-13 -139t-7 -143t-2 -123v-80q0 -46 1 -91t1 -91q42 0 95 -1t108 -1t107 2t94 10l4 -206q-102 2 -205 2 t-207 2q0 -30 -1 -96t1 -137t9 -128t21 -69h-350q10 10 16 41t10 73t6 89t3 92t2 81t1 54q-40 0 -122 1t-182 1h-209t-202 -2t-161 -5t-88 -9zM404 618h300t300 2v362v95t-2 93q-152 -136 -301 -274t-297 -278z" />
<glyph unicode="5" horiz-adv-x="1854" d="M122 406q0 46 18 88h336q-26 -34 -26 -84q0 -74 46 -121t112 -74t139 -37t127 -10q80 0 183 16t196 57t157 109t64 172q0 100 -59 166t-146 106t-185 57t-176 17q-44 0 -98 -5t-107 -17t-102 -30t-85 -44h-332q2 26 7 83t9 128t8 149t5 148t-1 124t-10 78l30 -4v4 q304 -6 607 -6t607 10q28 2 56 2t56 6l-6 -206l-1020 -8l-10 -290q96 30 194 43t198 13q80 0 176 -10t193 -35t189 -64t163 -98t114 -138t43 -181q0 -106 -45 -188t-120 -144t-172 -103t-199 -67t-202 -37t-182 -11q-62 0 -142 10t-163 31t-163 54t-143 82t-101 113t-38 146 z" />
<glyph unicode="6" horiz-adv-x="1842" d="M40 552q0 122 62 233t162 207t227 178t259 147t257 112t219 77l232 -136q-106 -30 -219 -70t-224 -88t-215 -106t-192 -126q86 28 176 40t180 12q70 0 159 -12t181 -36t179 -63t156 -92t110 -123t41 -158q0 -108 -42 -191t-112 -147t-162 -108t-191 -72t-199 -41 t-186 -13q-84 0 -180 13t-191 42t-183 75t-156 110t-108 147t-40 189zM362 494q0 -84 55 -146t133 -103t166 -60t154 -19q86 0 192 17t200 59t158 114t64 182q0 84 -60 143t-146 96t-181 54t-163 17q-50 0 -111 -9t-125 -27t-124 -46t-107 -67t-76 -90t-29 -115z" />
<glyph unicode="7" horiz-adv-x="1562" d="M102 1274v204q332 -6 660 -5t658 11q26 0 53 1t53 5l6 -208q-30 -24 -74 -74t-90 -107t-88 -112t-68 -87q-126 -158 -250 -316l-248 -316l-142 -180l-44 -56t-46 -54l-268 116q158 188 314 376t308 382q84 106 168 211t160 215z" />
<glyph unicode="8" horiz-adv-x="1790" d="M40 442q0 76 34 140t88 114t121 87t133 61q-38 20 -72 46t-61 59t-43 72t-16 85q0 74 34 130t89 98t126 71t145 46t145 25t127 8t127 -8t144 -25t144 -46t126 -71t89 -98t34 -130q0 -90 -57 -156t-133 -106q64 -24 131 -61t121 -87t88 -114t34 -140q0 -92 -44 -163 t-115 -121t-163 -84t-186 -54t-183 -28t-157 -8t-157 8t-184 28t-186 54t-163 84t-116 120t-44 164zM358 458q0 -58 27 -103t72 -77t102 -54t116 -35t115 -18t100 -5q42 0 98 5t115 18t116 35t102 54t72 77t27 103q0 86 -59 143t-142 90t-174 46t-155 13q-66 0 -157 -13 t-174 -46t-142 -90t-59 -143zM512 1106q0 -60 43 -97t104 -58t125 -28t106 -7t106 7t124 28t103 58t43 97t-42 100t-102 63t-124 32t-108 9t-109 -9t-125 -32t-102 -63t-42 -100z" />
<glyph unicode="9" horiz-adv-x="1842" d="M52 936q0 106 42 190t112 148t161 108t190 72t199 40t186 12q84 0 180 -13t192 -42t183 -74t155 -109t108 -147t40 -189q0 -124 -61 -234t-162 -206t-228 -178t-259 -147t-256 -113t-220 -78l-232 136q106 32 219 71t224 88t215 107t192 126q-172 -54 -354 -54 q-72 0 -160 12t-180 37t-179 63t-156 92t-110 124t-41 158zM358 946q0 -84 60 -143t146 -96t181 -54t163 -17q78 0 175 18t182 59t143 108t60 167q2 88 -49 151t-127 103t-163 58t-159 18q-84 0 -191 -17t-200 -59t-157 -114t-64 -182z" />
<glyph unicode=":" horiz-adv-x="412" d="M40 100q0 28 18 47t43 31t54 18t51 6t51 -6t54 -18t43 -31t18 -47t-18 -47t-43 -31t-54 -18t-51 -6t-51 6t-54 18t-43 31t-18 47zM40 630q0 28 18 47t43 31t54 18t51 6t51 -6t54 -18t43 -31t18 -47t-18 -47t-43 -31t-54 -18t-51 -6t-51 6t-54 18t-43 31t-18 47z" />
<glyph unicode=";" horiz-adv-x="470" d="M20 -272q20 80 38 159t36 161q2 14 8 35t10 43t8 42t4 36l296 -46q-8 -8 -27 -42t-42 -79t-49 -98t-48 -100t-38 -82t-22 -47zM98 630q0 28 18 47t43 31t54 18t51 6t51 -6t54 -18t43 -31t18 -47t-18 -47t-43 -31t-54 -18t-51 -6t-51 6t-54 18t-43 31t-18 47z" />
<glyph unicode="&#x3c;" horiz-adv-x="1016" d="M40 558v190h6q18 0 90 24t170 59t207 78t204 83t161 70t78 42v-238q-20 -4 -46 -12t-53 -18t-52 -21t-43 -17q-98 -38 -195 -76t-195 -76q144 -60 290 -105t294 -91v-250q-16 12 -85 43t-165 71t-205 83t-205 79t-165 59t-85 23h-6z" />
<glyph unicode="=" horiz-adv-x="1110" d="M40 548q16 -6 57 -9t86 -5t87 -2h60q24 0 84 1t137 2t161 4t158 7t129 9t71 11l-6 -246q-10 6 -49 10t-94 6t-118 3t-119 2t-100 1h-60h-98t-147 -1t-143 -5t-88 -10zM40 940q16 -6 57 -9t86 -5t87 -2h60q24 0 84 1t137 2t161 4t158 7t129 9t71 11l-6 -246q-10 6 -49 10 t-94 6t-118 3t-119 2t-100 1h-60h-98t-147 -1t-143 -5t-88 -10z" />
<glyph unicode="&#x3e;" horiz-adv-x="1016" d="M62 200v250q148 46 293 91t289 105q-98 38 -194 76t-194 76q-18 6 -44 17t-53 21t-53 18t-44 12v238q10 -12 76 -42t161 -70t205 -83t207 -78t169 -59t92 -24h4v-190h-4q-16 0 -85 -23t-165 -59t-205 -79t-205 -83t-165 -71t-85 -43z" />
<glyph unicode="?" horiz-adv-x="1510" d="M20 1170q0 98 52 157t130 91t168 42t164 10q68 0 168 -12t211 -36t221 -61t198 -88t143 -115t55 -144q0 -68 -66 -123t-164 -102t-213 -87t-213 -78t-164 -76t-66 -82q0 -92 38 -178h-298q-2 28 -4 57t-2 59q0 106 40 172t104 108t144 68t162 54q34 12 104 34t139 54 t121 72t52 86q0 38 -42 71t-108 61t-146 50t-156 37t-138 23t-92 8q-38 0 -84 -3t-85 -18t-65 -44t-26 -79q0 -48 19 -103t35 -99h-276q-26 50 -43 104t-17 110zM396 72q0 28 17 47t43 31t54 18t50 6t51 -6t54 -18t43 -31t18 -47t-18 -47t-43 -31t-54 -18t-51 -6t-50 6 t-54 18t-43 31t-17 47z" />
<glyph unicode="@" horiz-adv-x="1992" d="M30 594q0 132 52 247t141 209t205 167t243 123t257 76t246 26q138 0 276 -32t250 -103t182 -182t70 -267q0 -120 -48 -221t-129 -173t-187 -113t-222 -41q-24 0 -59 4t-68 16t-56 33t-23 55q0 4 1 9t1 9q-76 -22 -156 -32t-160 -10q-40 0 -103 5t-125 23t-106 52t-44 90 q0 54 45 92t117 63t159 39t170 21t153 8t108 1l8 52t4 50q0 36 -16 61t-42 40t-58 21t-62 6q-34 0 -78 -8t-86 -25t-75 -44t-45 -65l-200 24q38 66 98 112t132 75t148 41t148 12q60 0 123 -11t115 -39t85 -75t33 -119q0 -4 -1 -7t-1 -7v-8q-10 -74 -19 -146t-19 -144 q-4 -28 -8 -57t-4 -57q0 -16 5 -38t27 -22q20 0 39 9t35 21q40 30 74 78t58 104t38 114t14 110q0 118 -54 201t-139 134t-190 74t-207 23q-132 0 -272 -49t-256 -138t-190 -211t-74 -266q0 -88 37 -152t97 -110t139 -76t161 -47t163 -23t147 -6q106 0 211 12t207 40l12 -150 q-68 -20 -148 -33t-163 -20t-165 -10t-154 -3q-82 0 -175 13t-185 42t-175 73t-147 106t-102 142t-38 182zM688 576q0 -24 26 -37t61 -19t69 -7t50 -1q72 0 146 8t144 28q4 28 9 56t9 56h-52q-14 0 -54 -1t-91 -3t-107 -7t-103 -15t-77 -24t-30 -34z" />
<glyph unicode="A" horiz-adv-x="1720" d="M-10 0q12 14 29 45t34 66t33 68t24 51q22 44 70 142t107 223t122 262t115 259t85 214t33 126q0 4 -1 9t-5 5h468q-4 0 -5 -5t-1 -9q0 -34 33 -126t85 -214t115 -259t122 -262t106 -223t69 -142q8 -18 24 -51t34 -68t35 -66t29 -45h-376q2 2 2 8q0 14 -11 47t-24 70 t-27 70t-20 47q-170 6 -340 6h-85q-213 -2 -425 -10q-6 -14 -20 -47t-27 -69t-24 -68t-11 -46q0 -6 2 -8h-374zM526 428l84 -2q298 0 598 12q-82 182 -163 360t-175 352q-96 -176 -178 -358t-166 -364z" />
<glyph unicode="B" horiz-adv-x="1538" d="M62 -10q20 46 31 136t17 190q4 104 4 201v151v81t-2 142t-5 173t-9 175t-14 149t-20 94h207t192 -1t192 -6t205 -17q58 -6 130 -16t145 -27t142 -44t123 -68t86 -96t32 -131t-41 -135t-106 -103t-144 -76t-155 -54q62 -22 126 -50t114 -66t82 -85t32 -107q0 -90 -54 -155 t-140 -110t-194 -73t-217 -44t-208 -21t-167 -7q-96 -2 -192 -2zM396 604q0 -110 2 -214t8 -214h73t95 3t109 8t111 15t105 25t90 38t63 55t24 76q0 40 -24 70t-64 52t-91 36t-105 24q-112 18 -222 21t-174 5zM396 812q42 0 96 1t115 4t125 10t124 19t116 30t99 46t69 66 t26 90q0 46 -27 80t-72 58t-103 39t-120 25q-62 8 -126 13t-122 6t-106 1h-80q-6 -124 -9 -243t-5 -245z" />
<glyph unicode="C" horiz-adv-x="1926" d="M52 590q0 138 53 259t141 220t206 176t248 130t264 80t258 27q116 0 237 -18t220 -69t162 -140t63 -233q0 -52 -8 -104t-24 -102h-390q34 46 67 107t33 123q0 70 -47 115t-113 71t-139 36t-127 10q-130 0 -263 -48t-241 -134t-177 -204t-69 -258q0 -84 31 -148t84 -110 t121 -78t143 -50t151 -26t142 -8q164 0 326 28t322 72l78 -208q-86 -28 -181 -48t-192 -32t-194 -18t-187 -6q-88 0 -197 12t-219 39t-215 71t-187 110t-131 154t-49 202z" />
<glyph unicode="D" horiz-adv-x="1838" d="M62 1476l390 -2q118 0 264 -17t294 -54t288 -99t248 -151t174 -209t66 -274q0 -168 -75 -283t-198 -189t-279 -115t-318 -59t-314 -21t-268 -3h-240q6 12 10 60t7 115t5 145t3 147t1 122v73v89t-2 154t-5 185t-10 181t-17 140t-24 65zM414 640q0 -116 1 -231t7 -231 q26 0 52 -1t52 -1q76 0 177 6t209 24t212 50t186 86t133 131t51 183q0 116 -45 208t-120 163t-174 120t-206 81t-215 46t-202 14q-26 0 -52 -1t-52 -3q-10 -162 -12 -322t-2 -322z" />
<glyph unicode="E" horiz-adv-x="1596" d="M62 1474l1452 -4l-22 -222q-10 4 -49 6t-95 4t-120 3t-121 1h-101h-60q-256 0 -514 -6q-10 -100 -12 -199t-2 -201l920 10l-2 -214q-8 2 -39 5t-73 4t-91 2t-92 1h-77h-46q-250 0 -502 -6q0 -90 -1 -179t-1 -179v-80q142 -6 283 -6h283h58h102t121 1t119 2t95 3t49 6 l22 -222l-1452 -4q12 12 20 77t13 157t6 200t1 206t-1 173t-1 105v62t-1 98t-3 115t-7 113t-13 91t-20 53q-6 6 -13 12t-13 12z" />
<glyph unicode="F" horiz-adv-x="1410" d="M62 1474l1452 -4l-22 -222q-10 4 -49 6t-95 4t-120 3t-121 1h-101h-60q-256 0 -514 -6q-10 -100 -12 -199t-2 -201l908 10l-2 -214q-12 4 -73 7t-131 4t-134 1h-82q-242 0 -488 -6q0 -90 -1 -179t-1 -179v-62t2 -95t9 -91t19 -52h-350q12 12 20 77t13 157t6 200t1 206 t-1 173t-1 105v62t-1 98t-3 115t-7 113t-13 91t-20 53q-6 6 -13 12t-13 12z" />
<glyph unicode="G" horiz-adv-x="2094" d="M52 582q0 140 53 261t143 221t209 178t250 131t266 81t259 28q118 0 240 -19t222 -70t164 -141t64 -234q0 -52 -8 -105t-24 -103h-394q36 46 68 107t32 125q0 70 -47 116t-114 72t-140 36t-127 10q-132 0 -267 -48t-244 -135t-179 -206t-70 -261q0 -84 32 -149t85 -112 t123 -78t145 -50t151 -27t144 -8q108 0 215 13t215 35q0 52 -2 101t-8 101h-98q-24 0 -59 1q-17 1 -35 1t-37 -1q-37 -1 -71 -3t-58 -8l30 208q44 -10 98 -10h100q24 -2 79 -3t125 -2t147 -1t144 1t116 3t63 8l2 -216q-44 10 -106 11t-108 3q-12 -76 -16 -156t-4 -158v-36 q-86 -28 -181 -49t-194 -34t-197 -19t-188 -6t-199 12t-221 40t-218 73t-188 111t-132 155t-50 205z" />
<glyph unicode="H" horiz-adv-x="1732" d="M62 1474h448q-24 0 -40 -40t-26 -102t-16 -137t-8 -143t-2 -121v-71q218 -4 437 -6h110q164 0 329 4v60q0 18 1 64q0 23 0.5 49.5t-0.5 56.5q-1 60 -4 126t-11 122t-22 94t-34 44h446q-26 0 -42 -46t-26 -116t-15 -155t-7 -163t-2 -138v-82q0 -120 -1 -237t-1 -237v-62 t2 -95t9 -91t19 -52h-350q12 10 19 59t11 116t6 145t2 148v123v71q-202 8 -402 10t-402 2h-74q0 -94 -1 -186t-1 -186v-62t2 -96t9 -92t19 -52h-350q12 12 20 77t13 157t6 200t1 206t-1 173t-1 105q0 16 1 63q0 24 0.5 50.5t-0.5 56.5q-1 60 -4 126t-11 122t-22 94t-34 44z " />
<glyph unicode="I" d="M62 1474h448q-26 0 -43 -46t-27 -116t-15 -155t-7 -163t-2 -139v-83q0 -118 -1 -235t-1 -237v-62t2 -95t9 -91t19 -52h-350q12 12 20 77t13 157t6 200t1 206t-1 173t-1 105q0 18 1 64q0 23 0.5 49.5t-0.5 56.5q-1 60 -4 126t-11 122t-22 94t-34 44z" />
<glyph unicode="J" horiz-adv-x="1374" d="M-82 374q0 38 8 78t28 74l292 -48q-34 -58 -34 -124q0 -70 33 -116t85 -73t113 -38t119 -11q206 0 312 96t106 306v246q0 14 1 70t1 133t-1 163t-4 160t-10 125t-17 59h362q-10 -6 -15 -43t-6 -80t-1 -83v-52q0 -162 2 -325t2 -325q0 -172 -69 -286t-181 -181t-254 -95 t-288 -28q-96 0 -200 18t-189 63t-140 122t-55 195z" />
<glyph unicode="K" horiz-adv-x="1602" d="M62 1474h448q-24 0 -40 -39t-26 -99t-16 -131t-8 -137t-2 -117v-69q28 16 96 63t154 108t180 130t173 129t133 105t62 59l472 -2q-42 -22 -95 -60t-93 -66q-184 -124 -364 -248t-362 -252q18 -18 66 -63t114 -106t144 -134t158 -147t156 -143t138 -123t104 -87t52 -35 l-404 -10q-16 22 -38 43t-42 43q-160 160 -322 315t-332 303l-152 -108q0 -74 -1 -148t-1 -148v-62t2 -94t9 -91t19 -53h-350q12 12 20 77t13 158t6 200t1 204t-1 173t-1 106q0 18 1 64q0 23 0.5 49.5t-0.5 56.5q-1 60 -4 126t-11 122t-22 94t-34 44z" />
<glyph unicode="L" horiz-adv-x="1462" d="M62 1474h448q-26 0 -43 -46t-27 -116t-15 -155t-7 -163t-2 -139v-83q0 -138 -3 -276q-1 -59 -1 -118q0 -79 2 -158q68 -4 126 -5t114 -1h115h127h56h97t117 1t115 2t91 3t48 6l22 -222l-1348 -4q12 12 20 77t13 157t6 199t1 205t-1 174t-1 106q0 16 1 63q0 24 0.5 50.5 t-0.5 56.5q-1 60 -4 126t-11 122t-22 94t-34 44z" />
<glyph unicode="M" horiz-adv-x="2470" d="M52 0q12 12 24 61t23 117t20 146t16 149t12 125t7 74q14 156 31 316t17 316v39t-4 54t-13 49t-25 28h488q-10 -6 -10 -20q0 -36 36 -116t92 -183t125 -216t133 -216t117 -185t79 -120q24 38 77 120t118 185t133 217t124 216t92 182t36 116q0 14 -8 20h488q-18 -6 -27 -28 t-13 -49t-4 -54v-39q0 -156 17 -316t33 -316q2 -20 6 -74t11 -125t16 -149t20 -146t23 -117t26 -61h-366q8 10 8 34v36q0 124 -13 248t-29 246q-12 112 -27 232t-37 228q-102 -144 -191 -294t-179 -302l-102 -176q-16 -26 -31 -53t-33 -51q-42 -2 -84 -2h-84t-85 -1h-17 q-34 0 -68 3q-16 24 -31 51t-31 55l-104 176q-90 150 -179 300t-191 294q-22 -108 -36 -228t-28 -232q-16 -122 -29 -246t-13 -248v-36t10 -34h-366z" />
<glyph unicode="N" horiz-adv-x="1696" d="M62 1474h484q-6 -2 -6 -16q0 -34 45 -118t116 -193t156 -231t164 -232t142 -195t91 -121q3 110 3 220v55q-1 137 -1 275q0 18 1 64q0 23 0.5 49.5t-0.5 56.5q-1 60 -4 126t-11 122t-22 94t-34 44h448q-26 0 -42 -46t-27 -116t-16 -155t-6 -163t-1 -139v-83 q0 -118 -2 -235t-2 -237v-61t2 -95t9 -92t19 -52h-352q-26 30 -49 63t-47 65l-152 204q-128 172 -258 342t-268 336q-8 -66 -10 -133t-4 -133q-4 -102 -6 -204t-2 -204v-67t2 -107t7 -104t15 -58h-350q12 12 20 77t12 157t6 199t2 205t-1 174t-1 106q0 18 1 64 q0 23 0.5 49.5t-0.5 56.5q-1 60 -4 126t-11 122t-22 94t-34 44z" />
<glyph unicode="O" horiz-adv-x="1832" d="M52 726q0 184 73 326t193 238t276 146t322 50q164 0 320 -54t277 -155t194 -244t73 -321q0 -176 -77 -312t-201 -229t-280 -141t-314 -48q-172 0 -327 47t-272 140t-187 232t-70 325zM388 728q0 -112 39 -212t109 -175t165 -119t209 -44q106 0 203 45t170 120t117 172 t44 203q0 146 -42 253t-114 178t-168 106t-204 35q-112 0 -208 -47t-167 -125t-112 -179t-41 -211z" />
<glyph unicode="P" horiz-adv-x="1556" d="M62 1474h288q28 0 75 1h18q35 0 57 -3q106 0 210 -4t210 -14q62 -6 137 -16t150 -29t145 -49t124 -74t87 -106t33 -144q0 -112 -66 -189t-172 -128t-238 -80t-263 -43t-248 -18t-193 -4q0 -70 -1 -137t-1 -137v-62t2 -93t9 -91t19 -54h-350q12 12 20 78t13 158t6 200 t1 205t-1 173t-1 104q0 18 1 64q0 23 0.5 49.5t-0.5 56.5q-1 60 -4 126t-11 122t-22 94t-34 44zM416 772q80 0 159 2t159 8q58 4 144 14t165 36t135 75t56 131q0 58 -42 97t-107 64t-146 38t-160 18t-145 5h-104h-96q-14 -122 -16 -244t-2 -244z" />
<glyph unicode="Q" horiz-adv-x="1836" d="M52 726q0 180 69 322t185 239t269 148t319 51q162 0 314 -55t269 -157t187 -245t70 -317q0 -114 -33 -218t-105 -194q18 -8 51 -25t69 -34t69 -31t51 -16l-216 -166q-18 14 -43 30t-52 31t-53 29t-46 26q-116 -76 -259 -119t-283 -43q-170 0 -321 48t-265 142t-180 233 t-66 321zM380 728q0 -110 37 -210t104 -175t161 -120t206 -45q76 0 151 28t137 72q-18 8 -51 25t-69 33t-69 30t-51 18l234 148q30 -28 77 -51t83 -43q40 64 59 135t19 145q0 104 -40 206t-109 183t-163 132t-204 51t-204 -48t-162 -127t-107 -180t-39 -207z" />
<glyph unicode="R" horiz-adv-x="1658" d="M62 1474h39h80h100h100t79 -1t38 -1q72 0 183 -3t236 -17t251 -41t227 -77t165 -125t64 -183q0 -104 -60 -179t-149 -127t-190 -85t-183 -51q18 -16 72 -66t125 -114t150 -134t148 -129t119 -99t64 -42h-414q-12 16 -34 39t-46 46t-47 45t-39 36q-98 96 -197 187 t-203 181q-82 -10 -162 -13t-162 -7q-2 -54 -2 -107v-107v-62t2 -94t9 -91t19 -53h-350q12 12 20 77t12 157t6 199t2 205t-1 174t-1 106q0 18 1 64q0 23 0.5 49.5t-0.5 56.5q-1 60 -4 126t-11 122t-22 94t-34 44zM416 756l156 4t154 8q38 2 92 8t114 17t119 29t106 46t76 68 t29 94q0 60 -50 101t-129 66t-176 37t-189 17t-169 5h-117q-10 -112 -13 -223t-3 -223v-54z" />
<glyph unicode="S" horiz-adv-x="1816" d="M40 210q12 12 37 34t50 48t46 49t25 35q176 -108 385 -160t415 -52q34 0 107 5t146 21t128 45t55 77q0 64 -57 102t-151 63t-214 40t-245 33t-245 43t-214 68t-151 109t-57 166q0 106 43 188t116 144t166 104t194 68t201 38t184 12q140 0 266 -22t219 -80t148 -162 t55 -268q0 -40 -3 -78t-7 -78h-304q10 44 18 87t8 89q0 90 -32 149t-87 94t-126 48t-149 13q-48 0 -110 -7t-127 -22t-129 -39t-113 -60t-80 -85t-31 -111q0 -54 39 -93t100 -67t137 -46t150 -31t138 -20t102 -13q48 -8 117 -19t143 -29t147 -44t131 -63t94 -86t36 -113 q0 -68 -37 -120t-98 -91t-136 -64t-152 -41t-147 -22t-118 -6q-212 0 -420 35t-406 113q-20 8 -46 19t-54 23t-54 20t-46 10z" />
<glyph unicode="T" horiz-adv-x="1228" d="M-226 1472l1680 10l-2 -214q-8 4 -53 6t-108 3t-136 2t-138 1h-114h-65q-16 -150 -17 -300t-1 -300q0 -96 -2 -190t-2 -190v-61t2 -95t9 -92t19 -52h-350q14 12 21 77t12 157t6 200t1 206t-1 173t-1 105q0 90 -1 180t-7 180q-130 0 -258 -1t-258 -3q-20 0 -51 -1t-65 -1 t-65 -2t-49 -6z" />
<glyph unicode="U" horiz-adv-x="1766" d="M62 1470h376q-8 -24 -12 -74t-6 -106t-2 -109v-79q0 -144 4 -287t4 -287q0 -90 42 -153t107 -103t145 -59t158 -19q74 0 158 18t154 59t116 104t46 153q0 144 4 287t4 287v79t-2 109t-6 106t-12 74h364q-18 -18 -27 -49t-13 -66t-4 -68v-57q0 -176 6 -347t6 -347 q0 -100 -36 -179t-98 -139t-143 -103t-170 -70t-180 -39t-173 -12q-126 0 -263 29t-251 93t-189 167t-75 253q0 176 6 347t6 345v58t-4 69t-13 66t-27 49z" />
<glyph unicode="V" horiz-adv-x="1462" d="M-276 1474q110 0 220 -1h74q74 0 148 1q-6 -4 -7 -11t-1 -13q0 -42 35 -134t91 -210t124 -248t132 -249t117 -213t81 -140q26 46 80 140t118 213t132 249t123 248t91 210t36 134q0 6 -1 13t-7 11q73 -1 146 -1h73q109 1 219 1q-22 -12 -58 -61t-82 -123t-99 -165 t-107 -188t-105 -194t-95 -180t-77 -146t-49 -95l-102 -198q-16 -32 -32 -63t-36 -61q-26 -4 -50 -2t-50 2h-242q-22 42 -64 125t-97 190t-121 230t-133 247t-133 241t-123 210t-101 155t-68 76z" />
<glyph unicode="W" horiz-adv-x="2202" d="M-256 1474q110 0 219 -1h73q73 0 146 1q-6 -4 -7 -13t-1 -15q0 -44 27 -131t70 -196t96 -230t104 -231t94 -199t67 -135q90 218 173 438t149 448q-10 22 -28 62t-39 80t-45 75t-46 49h442q-10 -8 -11 -19t-1 -21q0 -48 21 -134t53 -190t73 -218t81 -220t74 -194t56 -138 q22 46 65 133t93 196t103 228t96 226t71 193t28 128q0 8 -1 17t-9 13q110 -2 220 -2l220 2q-24 -14 -64 -76t-90 -155t-107 -210t-115 -241t-114 -248t-103 -231t-82 -190t-53 -125h-348q-68 206 -139 408t-147 406q-80 -202 -151 -405t-137 -409h-348q-18 42 -54 125 t-83 190t-102 230t-113 247t-115 241t-107 210t-90 155t-64 76z" />
<glyph unicode="X" horiz-adv-x="1656" d="M-102 0q12 2 53 38t96 89t117 116t117 120t95 100t54 57q54 58 107 117t105 119q-20 22 -76 82t-130 139t-157 165t-157 158t-130 121t-76 53h468q38 -34 72 -75t68 -81q76 -88 152 -174t152 -176q76 90 152 176t152 174q34 40 68 81t72 75h468q-20 -4 -76 -53t-130 -121 t-157 -158t-157 -165t-130 -139t-76 -82q52 -60 106 -119t108 -117q12 -14 53 -57t96 -100t117 -120t116 -116t95 -89t53 -38h-440q-46 46 -88 95t-86 97q-80 90 -158 177t-158 177q-80 -90 -158 -177t-158 -177q-44 -48 -86 -97t-86 -95h-442z" />
<glyph unicode="Y" horiz-adv-x="1278" d="M-358 1474q120 0 237 -1h78q79 0 159 1q-8 -4 -8 -18q0 -30 34 -88t86 -131t116 -153t124 -152t110 -128t74 -82h10q24 26 73 82t110 128t124 152t116 153t86 131t33 88q0 12 -8 18q79 -1 157 -1h78q117 1 235 1q-36 -20 -104 -89t-152 -165t-176 -208t-176 -217 l-152 -190t-102 -129q-2 -42 -2 -84v-86v-64t3 -95t9 -92t20 -55h-366q10 10 17 46t11 85t5 105t2 106t1 89v55q-34 42 -102 127t-153 188t-177 215t-176 207t-152 164t-102 87z" />
<glyph unicode="Z" horiz-adv-x="1616" d="M-40 1474l1636 12v-202l-1134 -1088h180q82 -1 164 -1q122 0 243 2q201 3 407 7q28 0 57 1t57 5l6 -206l-1512 -10v212q40 28 73 60t67 64q250 236 489 476t485 476l-144 2h-208q-188 0 -373 -3t-373 -7h-58t-58 -6z" />
<glyph unicode="[" horiz-adv-x="742" d="M62 1688q52 -2 105 -3t105 -1q36 0 97 1t128 5t128 10t95 18l-2 -244q-8 8 -41 13t-71 7t-72 2h-46q-26 0 -50 -1t-50 -1q-22 -176 -23 -355t-1 -357q0 -152 -2 -304t-2 -304v-99t2 -99h30q18 0 67 2t103 5t100 9t58 16l-2 -244q-4 6 -39 10t-85 6t-108 4t-109 3t-88 1 h-45h-75t-75 -2q12 16 20 99t13 201t6 256t1 264t-1 225t-1 139q0 20 1 79t0 137t-4 163t-11 158t-22 123t-34 58z" />
<glyph unicode="\" horiz-adv-x="1082" d="M0 1474h394q-10 -2 -12 -10t-2 -18q0 -22 13 -61t33 -89t45 -104t48 -104t43 -90t30 -62q32 -66 62 -132l60 -132q12 -28 38 -83t59 -125t71 -145t75 -141t69 -114t56 -64h-296q2 2 2 10q0 14 -14 51t-36 85t-48 102t-51 102t-45 87t-28 57l-44 92t-44 94q-14 28 -46 98 t-75 158t-94 183t-99 173t-92 129t-72 53z" />
<glyph unicode="]" horiz-adv-x="742" d="M20 8q14 -10 60 -16t100 -9t103 -5t67 -2h28q2 50 3 99t1 99q0 152 -2 304t-2 304q0 178 -2 357t-22 355q-26 0 -51 1t-49 1h-47t-73 -2t-70 -7t-40 -13l-4 244q34 -12 95 -18t128 -10t128 -5t97 -1q54 0 107 1t105 3q-22 -8 -35 -58t-21 -123t-11 -158t-4 -163t0 -137 t1 -79q0 -40 -1 -139t-1 -225t1 -264t6 -256t12 -201t21 -99q-38 2 -75 2h-75h-45t-88 -1t-109 -3t-108 -4t-85 -6t-39 -10z" />
<glyph unicode="^" horiz-adv-x="1160" d="M20 682q14 12 53 72t88 143t103 178t99 178t74 143t29 74q0 4 -2 4h236l-2 -4q0 -18 30 -80t74 -147t97 -179t102 -176t87 -140t52 -66h-296q-2 14 -21 52t-46 88t-58 106t-60 108t-53 93t-34 59q-72 -122 -127 -249t-113 -257h-312z" />
<glyph unicode="_" horiz-adv-x="1756" d="M0 186q24 -8 76 -11t110 -4t112 -1h84q284 0 563 4t561 14q26 0 59 1t68 2t67 4t56 9l-6 -246q-16 6 -82 10t-159 6t-200 4t-206 2h-177h-110q-304 0 -606 -6h-103t-101 -10z" />
<glyph unicode="`" horiz-adv-x="1844" d="M610 1394l122 188l500 -272l-80 -122z" />
<glyph unicode="a" horiz-adv-x="1278" d="M40 286q0 70 51 120t131 83t180 51t196 28t180 12t132 4q0 28 1 54t1 54q0 50 -18 87t-49 61t-73 35t-88 11q-44 0 -95 -12t-97 -36t-80 -61t-42 -85l-252 34q36 92 100 156t145 104t173 59t184 19q88 0 171 -22t148 -67t104 -115t39 -166q0 -102 -3 -203t-3 -203v-65 t3 -98t9 -94t18 -55h-370q34 10 42 45t10 63q-90 -28 -182 -42t-184 -14q-60 0 -143 10t-158 38t-128 78t-53 132zM312 286q0 -30 32 -46t75 -25t85 -11t60 -2q84 0 170 12t166 38q2 36 3 72t1 70l-52 2q-18 0 -65 -1t-107 -4t-125 -10t-119 -19t-89 -31t-35 -45z" />
<glyph unicode="b" horiz-adv-x="1436" d="M72 0q10 16 19 94t17 188t14 238t11 246t7 212t2 136v77t-4 115t-12 110t-22 60l380 -2q-14 -6 -24 -46t-18 -99t-13 -129t-9 -133t-6 -113t-2 -70q88 60 192 91t212 31t213 -29t189 -87t136 -148t52 -210q0 -82 -34 -153t-90 -129t-125 -102t-137 -70q-142 -54 -292 -54 q-84 0 -165 18t-155 60q2 -22 4 -51t12 -51h-352zM404 472q0 -64 29 -111t76 -77t104 -45t113 -15q70 0 139 20t125 60t90 99t34 137q0 72 -31 125t-81 88t-113 51t-127 16q-58 0 -120 -18t-115 -52t-87 -84t-36 -116v-78z" />
<glyph unicode="c" horiz-adv-x="1292" d="M62 418q0 146 71 257t182 186t246 113t265 38q72 0 144 -11t130 -41t94 -84t36 -140q0 -44 -8 -86t-20 -84h-310q26 28 52 66t26 76q0 36 -26 59t-62 35t-75 17t-65 5q-82 0 -154 -29t-126 -80t-85 -121t-31 -154q0 -78 33 -124t84 -69t115 -29t128 -6q98 0 204 16 t200 44l54 -178q-96 -36 -214 -53t-222 -17q-62 0 -135 7t-147 24t-143 45t-123 72t-86 105t-32 141z" />
<glyph unicode="d" horiz-adv-x="1458" d="M40 480q0 124 67 217t168 155t221 93t226 31q84 0 167 -20t157 -66q-2 20 -3 69t-4 112t-8 131t-13 127t-19 99t-25 46l380 2q-14 -10 -22 -56t-11 -102t-4 -107t-1 -71q0 -42 2 -138t7 -217t11 -252t13 -243t17 -192t20 -98h-352q10 26 13 67t3 69q-84 -62 -188 -91 t-208 -29q-100 0 -208 29t-198 87t-149 145t-59 203zM338 472q0 -74 34 -126t86 -85t117 -48t129 -15q44 0 105 17t115 49t92 76t38 98q0 32 2 66q1 11 1 22q0 22 -3 42q-8 54 -40 94t-77 66t-97 39t-102 13q-68 0 -139 -18t-129 -56t-95 -96t-37 -138z" />
<glyph unicode="e" horiz-adv-x="1270" d="M52 416q0 142 56 254t150 189t218 118t260 41q108 0 192 -35t140 -98t85 -149t29 -190q0 -100 -30 -192h-834q20 -60 63 -98t98 -59t116 -29t115 -8q34 0 91 5t117 16t113 27t79 40l98 -172q-132 -50 -260 -78t-270 -28q-98 0 -208 26t-203 81t-154 139t-61 200zM316 542 h572q3 33 3 63q0 26 -2 50q-5 53 -27 92t-66 61t-118 22q-60 0 -119 -24t-107 -63t-84 -92t-52 -109z" />
<glyph unicode="f" horiz-adv-x="996" d="M-10 888q20 -6 50 -9t63 -4t64 -1h53q-2 30 -4 59t-2 57q0 154 58 294q46 108 116 184t158 124t191 69t217 21q96 0 179 -19t143 -64t95 -118t35 -179q0 -48 -6 -96t-16 -96q-4 -22 -10 -45t-6 -45v-6l-316 60q12 18 20 44t13 55t8 57t3 50q0 108 -51 173t-165 65 q-88 0 -156 -42t-115 -108t-72 -148t-25 -160q0 -46 -1 -91t-1 -91q64 2 130 3t132 5q34 2 74 4t74 12l-6 -202q-16 6 -72 10t-122 6t-126 2h-86v-200v-57t1 -94t2 -111t3 -108t6 -85t10 -43h-322q8 8 12 47t6 86t2 90v59q0 206 -6 414q-56 0 -114 1h-9q-53 0 -103 -11z" />
<glyph unicode="g" horiz-adv-x="1378" d="M40 480q0 110 61 202t154 156t205 100t212 36q82 0 160 -20t146 -66q-2 16 -3 48t-11 48h342q-10 -12 -17 -83t-12 -174t-8 -222t-5 -228t-3 -192t-1 -111q0 -180 -160 -284t-454 -114q-67 -3 -134 -3h-34h-56l-112 -1v224q30 -14 74 -22t92 -13t93 -6t77 -1 q110 0 175 22t99 69t46 122t16 181q-82 -64 -184 -98t-204 -34t-201 30t-177 89t-127 146t-49 199zM296 472q0 -72 30 -124t80 -86t111 -50t125 -16q50 0 106 17t104 48t81 76t39 101q4 24 4 51v53q0 58 -28 102t-72 74t-98 45t-104 15q-68 0 -135 -19t-121 -57t-88 -96 t-34 -134z" />
<glyph unicode="h" horiz-adv-x="1388" d="M92 -30q8 10 15 68t14 139t13 176t10 180t7 149t5 86q6 156 6 316v39t-1 68t-3 82t-6 80t-11 63t-17 30l382 -4q-10 0 -16 -16t-8 -22q-16 -52 -21 -109t-9 -111q-8 -86 -12 -171t-8 -171q90 64 204 91t222 27q88 0 166 -25t137 -75t93 -122t34 -166q0 -22 -1 -68 t-1 -103v-119t2 -116t6 -94t12 -52h-342q30 86 48 186t18 192q0 74 -15 140t-50 115t-92 77t-141 28q-88 0 -169 -44t-137 -110q-2 -64 -2 -129v-131v-40v-70t2 -84t4 -82t6 -65t10 -33h-354z" />
<glyph unicode="i" d="M102 -16q10 14 20 66t17 124t13 155t11 158t7 134t2 81v48t-4 75t-12 72t-22 39l352 -2q-10 -2 -15 -17t-9 -23q-14 -50 -21 -121t-10 -148t-4 -149t-1 -126v-73t3 -117t9 -113t18 -63h-354zM128 1292q0 32 18 57t45 40t58 23t59 8q26 0 58 -8t59 -23t45 -40t18 -57 t-18 -56t-45 -39t-59 -23t-58 -8q-28 0 -59 8t-58 23t-45 39t-18 56z" />
<glyph unicode="j" horiz-adv-x="610" d="M-482 -226q30 -12 74 -21t92 -13t94 -6t78 -2q98 0 159 16t97 56t52 106t22 166q4 44 4 87t2 89q0 30 1 93q1 31 1 66t-1 73q-1 76 -2 157t-3 150t-6 116t-10 55h344q-10 -10 -17 -81t-13 -174t-9 -222t-5 -228t-3 -192t-1 -113q0 -72 -29 -128t-78 -100t-112 -75 t-131 -52t-136 -31t-126 -12q-84 -2 -169 -2t-169 -2v224zM158 1292q0 32 18 57t45 40t58 23t59 8q26 0 58 -8t59 -23t45 -40t18 -57t-18 -56t-45 -39t-59 -23t-58 -8q-28 0 -59 8t-58 23t-45 39t-18 56z" />
<glyph unicode="k" horiz-adv-x="1170" d="M102 -12q8 14 16 64t14 124t11 165t10 187t8 191t6 176t4 143t1 92v71t-4 106t-12 101t-22 56l382 -2q-16 -10 -28 -70t-21 -147t-15 -190t-9 -197t-5 -168t-2 -102q118 98 239 194t233 202h350q-52 -28 -97 -70t-91 -78q-98 -84 -194 -164t-192 -164q108 -94 217 -185 t219 -183q48 -40 98 -84t106 -72h-362q-6 10 -38 39t-77 65t-97 78t-100 80t-87 67t-57 43l-72 -62v-67t2 -93t7 -90t13 -56h-354z" />
<glyph unicode="l" horiz-adv-x="608" d="M122 -18q10 16 20 97t17 194t13 244t11 249t7 208t2 122v73t-3 117t-11 113t-24 61l382 -4q-10 -2 -15 -24t-7 -30q-22 -100 -28 -203t-12 -205q-10 -170 -15 -336t-5 -336v-67t2 -107t6 -105t14 -61h-354z" />
<glyph unicode="m" horiz-adv-x="2076" d="M112 -18q8 10 16 57t14 112t10 140t7 143t4 120t1 72q0 16 -1 67t-5 106t-13 101t-27 52l350 -2q-4 -22 -4 -47t-2 -49q74 54 165 89t185 35q100 0 189 -41t143 -129q78 74 189 122t219 48q96 0 170 -31t124 -88t76 -135t26 -172q0 -90 -3 -178t-3 -178q0 -50 2 -99 t10 -97h-350q20 36 33 102t20 138t10 141t3 111q0 52 -9 103t-31 90t-62 63t-102 24q-76 0 -144 -40t-120 -92q6 -46 6 -88q0 -90 -2 -178t-2 -178q0 -50 1 -99t9 -97h-350q20 36 33 102t21 138t10 141t2 111q0 52 -9 103t-31 90t-62 63t-102 24q-80 0 -151 -44t-123 -102 q-4 -92 -6 -184t-2 -186v-55t2 -87t6 -85t14 -47h-354z" />
<glyph unicode="n" horiz-adv-x="1392" d="M112 0q8 12 16 59t14 112t10 139t7 142t4 120t1 72q0 16 -1 67t-5 106t-13 101t-27 52l350 -2l-6 -96q74 54 165 89t185 35q92 0 179 -19t153 -64t106 -117t40 -180q0 -138 -13 -274t-13 -274q0 -46 6 -90h-350q20 32 30 107t15 160t6 164t1 121q0 122 -60 191t-186 69 q-42 0 -81 -15t-74 -39t-66 -54t-55 -60q-6 -174 -6 -348v-55t2 -87t6 -85t14 -47h-354z" />
<glyph unicode="o" horiz-adv-x="1496" d="M62 462q0 134 65 229t165 156t221 89t235 28q110 0 232 -31t222 -94t166 -159t66 -226q0 -86 -32 -155t-85 -122t-123 -92t-147 -64t-157 -37t-150 -12q-114 0 -234 26t-219 84t-162 151t-63 229zM362 464q0 -78 35 -132t90 -88t123 -49t134 -15q62 0 130 16t126 50 t96 87t38 127t-36 129t-92 92t-125 55t-133 18q-66 0 -134 -17t-124 -52t-92 -90t-36 -131z" />
<glyph unicode="p" horiz-adv-x="1456" d="M72 -484q10 16 19 94t17 189t14 240t11 247t7 213t2 137v78t-4 117t-12 111t-22 60l380 -4q-14 -14 -19 -41t-9 -47q82 46 173 71t187 25q108 0 213 -29t189 -88t136 -149t52 -210t-66 -214t-167 -159t-220 -99t-225 -34q-84 0 -166 18t-156 62q-2 -62 -2 -123v-123v-73 t2 -107t6 -103t12 -59h-352zM416 408q16 -52 48 -88t73 -57t90 -30t99 -9q70 0 139 20t125 60t90 99t34 137q0 72 -31 125t-81 88t-113 51t-127 16q-104 0 -195 -44t-137 -140q-4 -58 -7 -114t-7 -114z" />
<glyph unicode="q" horiz-adv-x="1458" d="M52 480q0 90 49 178t139 159t215 115t277 44q72 0 143 -15t137 -47q0 6 -2 18t-6 25t-9 25t-11 16l382 4q-16 -6 -24 -59t-12 -116t-4 -120v-73q0 -80 2 -159t6 -161q0 -20 3 -86t7 -152t10 -182t13 -179t14 -141t15 -68h-352q8 10 12 59t6 108t2 110v67v143t-2 141 q-84 -60 -190 -89t-208 -29q-100 0 -208 29t-198 87t-148 145t-58 203zM348 472q0 -74 34 -126t87 -85t118 -48t129 -15q106 0 199 49t137 151q-4 60 -7 119t-7 117q-42 80 -122 112t-168 32q-68 0 -139 -18t-129 -56t-95 -96t-37 -136z" />
<glyph unicode="r" horiz-adv-x="884" d="M102 0q8 4 14 43t9 95t6 121t4 125t1 104v58v76t-2 122t-6 119t-12 67h296q-4 -12 -6 -35t-4 -49t-3 -50t-1 -36q48 40 111 76t132 63t140 43t133 16v-172q-64 0 -142 -28t-153 -72t-135 -100t-88 -114q0 -14 1 -52t2 -88t3 -105t6 -103t8 -82t10 -42h-324z" />
<glyph unicode="s" horiz-adv-x="1280" d="M0 160q4 2 28 24t51 49t49 51t24 30q102 -76 227 -112t251 -36q14 0 54 3t83 11t77 22t34 36q0 32 -56 52t-141 38t-183 40t-183 57t-141 87t-56 134q0 120 65 205t163 138t212 77t214 24q82 0 158 -13t134 -47t93 -94t35 -156q0 -48 -7 -96t-17 -94h-264q12 34 20 71 t8 75q0 84 -45 125t-129 41q-48 0 -113 -11t-123 -37t-99 -68t-41 -104q0 -46 45 -77t105 -50t121 -29t93 -16q50 -10 127 -25t149 -44t124 -72t52 -109q0 -74 -58 -124t-139 -80t-169 -43t-146 -13q-120 0 -238 17t-232 57q-14 6 -46 19t-67 28t-65 27t-38 12z" />
<glyph unicode="t" horiz-adv-x="942" d="M0 720l14 196q72 -6 146 -7t148 -1q4 58 6 113t2 113v48t-4 75t-12 71t-22 38l368 -6q-8 0 -12 -12t-8 -18q-12 -38 -19 -92t-12 -113t-8 -114t-5 -97q68 4 138 7t138 19v-216l-286 -2q-4 -102 -8 -205t-4 -205q0 -34 14 -58t37 -39t52 -21t59 -6q38 0 75 6t73 16 l-32 -214q-116 0 -218 7t-178 43t-120 115t-44 223q0 84 5 169t13 169z" />
<glyph unicode="u" horiz-adv-x="1372" d="M112 376q0 134 13 266t13 266q0 22 -1 44t-5 44h338q-20 -34 -30 -108t-15 -158t-6 -163t-1 -123q0 -76 12 -126t41 -80t79 -42t126 -12q42 0 81 15t75 39t66 54t54 60q4 88 6 174t2 174v59t-2 85t-7 81t-13 49h352q-8 -14 -15 -60t-13 -109t-10 -137t-7 -141t-4 -120 t-1 -77v-71t5 -105t14 -98t27 -52l-352 2l8 96q-76 -54 -166 -89t-184 -35t-181 23t-153 71t-106 123t-40 181z" />
<glyph unicode="v" horiz-adv-x="1144" d="M-10 976h338q62 -162 122 -321t140 -311l204 420q24 52 50 104t40 108h322q-16 -16 -58 -89t-96 -176t-111 -221t-105 -223t-79 -182t-31 -97l2 -4h-256v4q-2 22 -33 98t-79 179t-106 220t-111 219t-95 177t-58 95z" />
<glyph unicode="w" horiz-adv-x="1622" d="M-40 976h336q64 -162 123 -320t139 -312q40 82 79 162t79 162q-12 26 -33 70t-45 91t-47 87t-39 60h336q20 -50 35 -100t31 -100q36 -110 77 -217t93 -211q52 116 103 231t103 233l36 80t28 84h320q-12 -10 -37 -54t-59 -110t-73 -149t-79 -169t-77 -170t-65 -153 t-45 -118t-17 -63v-6h-256q4 6 -4 35t-23 68t-34 84t-37 86t-33 72t-21 43q-10 -22 -36 -79t-53 -119t-48 -115t-21 -71v-4h-256q2 2 2 4q0 18 -31 93t-79 179t-107 222t-112 222t-95 179t-58 93z" />
<glyph unicode="x" horiz-adv-x="1246" d="M-62 -16q14 2 56 36t98 85t120 112t120 116t99 97t57 58l-58 58l-97 97t-118 114t-118 109t-99 82t-60 34h410l-2 -2q2 -12 21 -39t49 -61t64 -72t66 -72t57 -60t35 -36q8 8 33 34t58 61t68 74t65 74t49 61t19 36l-2 2h410q-16 -2 -60 -34t-99 -82t-118 -109t-118 -114 l-97 -97l-58 -58q14 -16 57 -58t99 -97t120 -116t120 -112t98 -85t56 -36h-416q2 8 -15 35t-46 62t-64 76t-68 76t-58 62t-33 35q-8 -8 -32 -34t-56 -61t-67 -74t-64 -74t-47 -62t-18 -35v-6h-416z" />
<glyph unicode="y" horiz-adv-x="1332" d="M72 994l364 -2q-16 -26 -29 -76t-21 -106t-12 -109t-4 -85q0 -80 11 -148t43 -119t87 -80t143 -29q36 0 82 6t88 23t74 45t38 72q6 36 6 73v71q0 30 -3 101t-9 146t-17 140t-27 83l354 4q-8 -12 -12 -56t-6 -95t-2 -98v-65q0 -164 2 -327t2 -325q0 -124 -55 -217 t-143 -154t-198 -91t-220 -30q-122 0 -243 2t-241 4l20 232q30 -12 85 -23t115 -18t116 -11t92 -4q94 0 168 16t126 55t80 107t28 170q0 18 -1 37t-3 37q-80 -58 -176 -86t-194 -28q-144 0 -239 45t-151 124t-79 188t-23 237q0 62 4 124t4 124q0 28 -3 61t-21 55z" />
<glyph unicode="z" horiz-adv-x="1250" d="M82 178l12 -2l-4 2q22 8 76 48t123 98t148 127t150 133t127 117t82 81h-180q-88 0 -174 -1t-172 -3h-92t-90 -10l-6 182q20 -6 54 -8t71 -3t72 -1h57q178 0 354 3t352 11q44 2 90 2t88 10l-6 -192q-40 -16 -101 -58t-132 -99t-147 -123t-145 -129t-126 -118t-89 -89 q246 -6 490 -6h59t72 1t70 4t55 9l-8 -182q-40 9 -81 9h-8h-30q-30 0 -61 1q-88 2 -174 2h-172h-72h-112t-130 -1t-127 -3t-102 -6t-55 -8z" />
<glyph unicode="{" horiz-adv-x="912" d="M20 650v180q8 -2 49 21t89 53t90 58t56 36q-2 108 -3 216t-7 216v32q0 46 9 86t31 70t57 47t87 17q42 0 97 1t113 4t112 10t92 19l-4 -246q-10 8 -45 13t-78 8t-83 3h-58q-40 0 -52 -15t-18 -53q-8 -42 -8 -84t-2 -82q-4 -86 -7 -171t-7 -169q-14 -4 -51 -27t-81 -51 t-83 -54l-57 -38q64 -46 133 -80t139 -70v-240t2 -240q0 -20 -2 -43t2 -41t21 -40t37 -22t65 2t93 5t90 9t54 16l-4 -246q-10 8 -67 13t-127 8t-134 3h-86q-88 0 -134 60t-46 142q0 124 4 245t4 245q-16 10 -57 38t-87 58t-86 54t-50 24h-2z" />
<glyph unicode="|" horiz-adv-x="518" d="M62 1474h394q-24 0 -40 -40t-26 -103t-16 -138t-8 -144t-2 -124v-75q0 -146 -2 -291t-2 -291v-58t3 -83t9 -80t18 -47h-296q10 10 17 56t12 109t7 136t3 140t1 119v72q0 72 -1 143t-1 143q0 20 1 68t0 108t-5 125t-12 120t-21 92t-33 43z" />
<glyph unicode="}" horiz-adv-x="912" d="M20 6q12 -10 55 -16t92 -9t94 -5t61 -2q22 0 38 22t20 40v14v27t1 27t1 16v322v158q70 36 139 70t135 80q-14 8 -55 35t-87 56t-85 53t-47 26q-4 84 -7 169t-7 171q-2 40 -3 82t-5 84q-4 30 -13 44t-23 19t-33 4t-43 -1h-46t-71 -2t-69 -7t-38 -13l-4 246q36 -12 92 -19 t116 -10t117 -4t97 -1q50 0 83 -18t54 -48t30 -70t9 -84v-32q-6 -108 -7 -216t-1 -216q54 -34 108 -70t112 -70q2 -2 11 -7t20 -11t20 -9t11 -1v-180h-2q-10 0 -50 -24t-87 -55t-89 -59l-54 -36q0 -118 2 -234t6 -236v-14q2 -84 -43 -146t-137 -62h-45t-77 -1t-94 -2t-92 -4 t-72 -7t-34 -10z" />
<glyph unicode="~" horiz-adv-x="984" d="M40 700q52 42 127 65t141 23q58 0 107 -15t92 -34t80 -34t73 -15q32 0 70 9t76 24t73 33t63 36l-10 -226q-60 -28 -136 -45t-144 -17q-58 0 -104 15t-87 34t-81 34t-86 15q-32 0 -66 -12t-68 -30t-64 -41t-52 -45z" />
<glyph unicode="&#xa1;" horiz-adv-x="556" d="M82 -28q10 2 14 20t6 24q20 88 32 199t16 226t5 227t1 202v54t-2 85t-5 83t-11 48h324q-10 -14 -18 -77t-15 -153t-13 -193t-10 -197t-6 -166t-2 -96v-58t3 -93t11 -90t22 -47zM142 1374q0 28 18 47t43 31t54 18t51 6t51 -6t54 -18t43 -31t18 -47t-18 -47t-43 -31 t-54 -17t-51 -5t-51 5t-54 17t-43 31t-18 47z" />
<glyph unicode="&#xa2;" horiz-adv-x="1246" d="M20 700q0 98 45 179t117 143t160 104t172 64q0 14 -1 44t-4 61t-11 57t-22 32l356 -4q-12 -2 -20 -23t-13 -47t-8 -51t-5 -37q62 2 135 -5t136 -33t105 -74t42 -128q0 -40 -8 -77t-20 -73h-314q24 22 51 56t27 68q0 32 -28 52t-65 31t-76 15t-63 4q-74 0 -145 -23 t-128 -66t-92 -105t-35 -142q0 -72 37 -113t92 -60t119 -23t118 -4q104 0 206 12t202 40l54 -156q-88 -28 -180 -42t-184 -18q0 -16 1 -49t4 -68t9 -65t16 -40h-358q12 14 18 49t10 72t9 69t11 42q-70 8 -152 29t-153 60t-119 98t-48 145z" />
<glyph unicode="&#xa3;" horiz-adv-x="1390" d="M62 718q14 -4 43 -7t62 -5t63 -2h46q-20 26 -42 56t-40 63t-29 67t-11 68q0 70 35 125t89 95t119 67t123 41q58 16 118 22t120 6q72 0 148 -11t145 -37t128 -71t99 -111q50 -82 50 -174q0 -42 -12 -80h-274q6 22 10 45t4 47q0 64 -30 110t-78 75t-106 43t-114 14 q-50 0 -106 -11t-104 -36t-80 -66t-32 -103q0 -64 34 -127t66 -115q18 0 62 1t99 2t116 3t115 5t93 7t53 8l-6 -210q-8 4 -43 7t-85 6t-107 4t-109 2t-91 1h-53q-14 -22 -37 -46t-47 -48t-42 -48t-22 -48h116h265t265 4h52h66t66 1t50 5l4 -150l-1158 -8v72q0 50 23 86 t56 66t70 56t67 56h-58t-83 -1t-81 -4t-54 -7z" />
<glyph unicode="&#xa4;" horiz-adv-x="1128" d="M20 368q10 0 44 24t71 54t71 57t44 35q-40 30 -63 71t-23 93q0 54 25 96t67 74q-12 8 -45 36t-71 57t-72 52t-48 23h318q-4 -4 4 -13t10 -13q16 -20 35 -38t37 -36q74 16 140 16q70 0 140 -18q4 4 19 18t30 30t27 31t12 21q0 2 -2 2h318q-12 0 -47 -23t-74 -53t-73 -58 t-46 -38q44 -30 71 -73t27 -97q0 -52 -25 -91t-65 -67q10 -8 44 -36t72 -58t72 -54t44 -24h-324q2 4 -9 19t-26 32t-29 31l-18 18q-34 -8 -70 -11t-72 -3q-70 0 -136 12l-17 -17t-27 -29t-25 -30t-11 -20v-2h-324zM330 702q0 -42 24 -71t59 -45t75 -23t74 -7q32 0 73 7 t78 24t62 45t25 68q0 42 -25 71t-61 47t-77 26t-73 8q-34 0 -75 -7t-76 -25t-59 -47t-24 -71z" />
<glyph unicode="&#xa5;" horiz-adv-x="1452" d="M-20 1290h326q-6 -2 -6 -14q0 -24 26 -69t67 -102t91 -120t98 -120t87 -102t59 -67q20 22 60 67t87 102t97 119t91 119t67 103t26 70q0 10 -6 14h324q-26 -14 -69 -56t-94 -100t-108 -125t-108 -130t-93 -116t-64 -81q56 2 111 4t111 4q32 2 64 2t62 8l-6 -176 q-16 6 -78 8t-136 4t-141 3t-93 1l-2 -94q76 2 153 3t153 5q36 2 75 2t75 10l-6 -178q-10 4 -43 7t-76 5t-93 2t-97 1t-84 1h-55q2 -22 4 -58t18 -52h-260q12 16 16 52t6 58q-76 0 -150 -1t-150 -3h-67t-67 -8l-6 162q24 -6 54 -9t62 -4t64 0t56 1h208l2 98q-76 0 -152 -1 t-152 -3q-34 -2 -68 -1t-68 -7l-6 160q24 -6 54 -9t62 -3h63h55h114q-24 28 -67 82t-95 117t-109 131t-110 127t-96 101t-67 56z" />
<glyph unicode="&#xa6;" horiz-adv-x="438" d="M62 0q14 24 22 74t11 106t4 108t1 80q0 128 -6 258l244 4q-6 -118 -6 -232q0 -30 1 -85t5 -114t12 -112t20 -81zM72 1474l304 -6q-14 -16 -23 -73t-13 -123t-6 -125t-2 -83q0 -52 2 -102t6 -102l-240 -4q4 54 6 109t2 109q0 26 -1 84t-5 121t-11 118t-19 77z" />
<glyph unicode="&#xa7;" horiz-adv-x="1546" d="M62 1208q0 88 39 157t102 119t146 85t170 57t172 31t155 9q102 0 201 -13t179 -54t129 -117t49 -200q0 -40 -4 -81t-10 -81h-258q14 38 22 78t8 80q0 70 -29 113t-74 67t-102 33t-113 9q-58 0 -146 -12t-169 -43t-139 -82t-58 -129q0 -40 33 -69t85 -51t115 -36t125 -24 t114 -16t80 -10l128 -20t128 -26q40 -10 90 -28t95 -46t75 -66t30 -88q0 -46 -25 -82t-63 -65t-82 -50t-80 -33q48 -10 102 -27t99 -44t75 -69t30 -102q0 -88 -39 -157t-103 -119t-146 -85t-170 -57t-173 -31t-155 -9q-100 0 -200 13t-180 54t-129 117t-49 200q0 40 5 81 t11 81h256q-12 -40 -20 -79t-8 -79q0 -70 28 -113t74 -67t102 -33t114 -9t145 12t168 42t139 81t58 129q0 40 -33 70t-85 51t-115 36t-124 25t-113 16t-80 10q-38 6 -93 14t-116 22t-121 34t-108 48t-78 67t-30 89q0 44 25 81t62 66t81 49t80 32q-48 12 -102 28t-99 44 t-74 70t-29 102zM388 754q0 -34 23 -57t59 -39t80 -25t88 -14t81 -6t59 -1q30 0 93 4t127 17t112 37t48 66q0 50 -49 78t-113 42t-130 17t-98 3q-30 0 -93 -4t-127 -16t-112 -36t-48 -66z" />
<glyph unicode="&#xa8;" horiz-adv-x="1844" d="M510 1384q0 28 18 47t43 31t54 18t51 6t51 -6t54 -18t43 -31t18 -47t-18 -47t-43 -31t-54 -18t-51 -6t-51 6t-54 18t-43 31t-18 47zM1002 1384q0 28 18 47t43 31t53 18t50 6t51 -6t54 -18t43 -31t18 -47t-18 -47t-43 -31t-54 -18t-51 -6t-50 6t-53 18t-43 31t-18 47z" />
<glyph unicode="&#xa9;" horiz-adv-x="1734" d="M30 882q0 158 82 271t207 185t273 106t280 34q88 0 184 -16t189 -49t176 -83t146 -118t100 -153t37 -189q0 -98 -40 -179t-106 -144t-152 -110t-179 -78t-187 -46t-176 -15q-130 0 -277 32t-271 102t-205 181t-81 269zM268 884q0 -116 57 -198t145 -134t193 -76t203 -24 q92 0 197 25t195 78t149 133t59 188q0 104 -46 187t-125 140t-188 88t-235 31q-96 0 -203 -26t-196 -80t-147 -136t-58 -196zM418 840q0 86 50 154q40 60 97 101t124 66t138 37t139 12q44 0 95 -6t94 -24t72 -52t29 -90q0 -28 -5 -53t-15 -51h-222q16 16 36 39t20 49 q0 22 -19 36t-46 22t-55 11t-44 3q-52 0 -104 -16t-92 -46t-65 -75t-25 -103q0 -30 11 -57t37 -45q40 -24 103 -32t109 -8q72 0 146 9t144 29l38 -110q-72 -24 -154 -34t-158 -10q-58 0 -139 9t-157 35t-129 74t-53 126z" />
<glyph unicode="&#xaa;" horiz-adv-x="1058" d="M20 732q0 52 44 89t112 61t150 37t161 19t144 8t97 2q0 18 1 36t1 34q0 38 -16 63t-42 40t-57 21t-63 6t-73 -7t-78 -24t-65 -43t-34 -62l-222 24q32 72 87 121t122 79t142 42t149 12q62 0 130 -14t125 -46t93 -84t36 -126q0 -76 -2 -149t-2 -149v-39t1 -62t3 -61t8 -36 l26 -20h-296l-2 22l-2 -2q4 10 7 30t5 24q-142 -36 -292 -36q-44 0 -111 7t-131 27t-110 57t-46 99zM256 732q0 -18 27 -29t61 -17t66 -7t42 -1q68 0 136 8t132 26q2 22 2 45t2 45h-38h-45t-83 -3t-101 -7t-98 -12t-74 -20t-29 -28z" />
<glyph unicode="&#xab;" horiz-adv-x="902" d="M20 284v180q6 -4 17 3t15 9q14 10 48 34t76 56t88 68t85 69t66 59t33 38v-226q-12 -4 -50 -33t-83 -64t-85 -67t-54 -44q64 -54 133 -97t139 -87v-238q-8 10 -40 40t-76 67t-95 78t-95 76t-77 57t-39 22h-6zM414 284v180q4 -4 16 3t16 9q14 10 48 34t76 56t87 68t84 69 t66 59t33 38v-226q-10 -4 -49 -33t-84 -64t-85 -67t-54 -44q64 -54 133 -97t139 -87v-238q-6 10 -38 40t-77 67t-95 78t-95 76t-77 57t-40 22h-4z" />
<glyph unicode="&#xac;" horiz-adv-x="1412" d="M40 746q10 -6 42 -9t74 -5t89 -3t90 -1h77h48q24 0 94 1t162 2t193 3t189 5t150 7t76 10q-4 -66 -7 -131t-3 -131q0 -30 1 -74t5 -90t11 -89t19 -71l-288 -6q14 24 22 67t11 91t4 93t1 73v34q-120 8 -240 12t-240 4q-144 0 -287 -6t-287 -20z" />
<glyph unicode="&#xad;" horiz-adv-x="1020" d="M40 738q14 -6 51 -9t79 -4t79 -1h55q22 0 77 1t125 2t147 4t145 6t117 8t63 11l-6 -246q-8 6 -44 10t-85 6t-107 3t-109 2t-91 1h-54h-90t-134 -1t-131 -5t-81 -10z" />
<glyph unicode="&#xae;" horiz-adv-x="1734" d="M30 882q0 158 82 271t207 185t273 106t280 34q88 0 184 -16t189 -49t176 -83t146 -118t100 -153t37 -189q0 -98 -40 -179t-106 -144t-152 -110t-179 -78t-187 -46t-176 -15q-130 0 -277 32t-271 102t-205 181t-81 269zM268 884q0 -116 57 -198t145 -134t193 -76t203 -24 q92 0 197 25t195 78t149 133t59 188q0 110 -57 194t-145 140t-192 84t-200 28t-203 -26t-196 -79t-147 -136t-58 -197zM492 624l18 44q8 20 14 55t9 74t4 76t1 61t-1 60t-4 74t-10 72t-17 56q34 0 69 1t71 1q22 0 44 -1t44 -3q30 0 82 -1t110 -6t118 -15t108 -30t78 -50 t30 -76q0 -42 -28 -72t-69 -50t-85 -32t-76 -18q84 -58 169 -114t171 -110h-260q-68 52 -135 102t-139 96q-24 -2 -49 -3t-49 -3l-2 -64q0 -36 6 -64t24 -60h-246zM710 934q22 0 78 1t115 8t104 24t45 49q0 24 -40 38t-92 20t-101 7t-67 1h-36q-4 -36 -5 -73t-1 -75z" />
<glyph unicode="&#xaf;" horiz-adv-x="1844" d="M614 1494q8 -6 32 -9t51 -5t52 -2h37q14 0 50 1t83 3t98 4t95 6t76 9t42 11l-4 -214q-8 8 -54 12t-101 6t-105 3t-64 1q-16 0 -58 -1t-88 -2t-87 -5t-53 -10z" />
<glyph unicode="&#xb0;" horiz-adv-x="666" d="M40 1388q0 52 30 88t75 58t96 31t93 9t92 -10t95 -33t75 -59t30 -88q0 -50 -32 -84t-77 -55t-97 -30t-90 -9q-42 0 -93 8t-94 29t-73 56t-30 89zM206 1388q0 -24 12 -40t31 -26t41 -14t42 -4q18 0 40 4t42 14t33 26t13 40t-13 40t-32 26t-41 15t-40 5q-20 0 -42 -4 t-41 -15t-32 -27t-13 -40z" />
<glyph unicode="&#xb1;" horiz-adv-x="1064" d="M40 780q16 -8 67 -11t111 -4t118 -1h88q0 16 -3 55t-7 82t-10 80t-12 47l280 -6q-8 -8 -12 -43t-7 -77t-4 -80t-1 -52q18 0 75 3t119 6t116 8t66 11l-6 -246q-10 6 -63 10t-116 7t-119 4t-72 1q0 -16 1 -52t2 -76t5 -74t10 -46l-254 -4q8 12 12 44t5 70t1 76v62 q-22 0 -78 -1t-119 -2t-117 -4t-70 -9zM62 206q14 -6 50 -9t78 -5t79 -2h55q22 0 77 1t125 3t147 4t145 6t117 9t63 11l-6 -226q-8 6 -44 10t-85 6t-107 3t-109 2t-91 1h-54h-88t-135 -1t-132 -5t-79 -10z" />
<glyph unicode="&#xb2;" horiz-adv-x="1080" d="M72 614v138l8 2q78 20 173 51t188 73t175 96t134 120q20 28 35 60t15 68q0 44 -24 74t-60 48t-78 26t-78 8q-48 0 -92 -10t-77 -32t-52 -60t-19 -92q0 -32 10 -72h-236q-12 36 -12 76q0 48 16 90t44 82q32 46 78 77t99 49t109 26t110 8q64 0 147 -15t158 -50t126 -92 t51 -139t-52 -154t-126 -133t-157 -107t-143 -76q70 0 138 1t138 1q28 2 71 1t71 5l12 2q2 -36 3 -72t1 -72q-228 -2 -452 -3t-452 -3z" />
<glyph unicode="&#xb3;" horiz-adv-x="1084" d="M30 882q0 60 34 106h230q-18 -26 -30 -53t-12 -57q0 -48 28 -76t69 -43t86 -19t81 -4q26 0 74 6t95 19t82 37t35 60q0 42 -47 65t-108 35t-122 15t-89 3v140q34 0 89 5t108 21t92 45t39 77q0 32 -20 54t-50 36t-63 19t-59 5q-42 0 -78 -4t-64 -17t-50 -40t-34 -73 l-236 -4q24 80 70 133t106 86t131 47t147 14q54 0 128 -13t142 -42t115 -76t47 -117q0 -36 -17 -68t-42 -57t-57 -45t-62 -34q32 -12 68 -29t66 -42t50 -57t20 -72q0 -78 -57 -131t-138 -84t-170 -45t-151 -14q-66 0 -149 13t-155 46t-122 89t-50 140z" />
<glyph unicode="&#xb4;" horiz-adv-x="1844" d="M610 1310l502 272l120 -188l-540 -206z" />
<glyph unicode="&#xb6;" horiz-adv-x="1514" d="M0 1036q0 82 32 143t86 105t124 74t145 49t149 30t136 17q106 10 210 14t208 4q20 4 47 3t47 -1h270q-18 -6 -29 -44t-17 -95t-9 -123t-4 -126t0 -106t1 -62q0 -30 -1 -106t-1 -173t1 -204t4 -200t10 -158t17 -77h-290q12 12 17 54t7 91t2 94v61q0 70 -1 137t-1 137 q-62 0 -123 2t-121 6v-63v-108t1 -129t5 -127t9 -102t15 -53h-290q12 10 17 49t7 85t2 88v58q0 82 -1 162t-1 162q-60 8 -134 21t-150 34t-147 53t-126 77t-89 106t-34 141zM362 1038q0 -62 31 -103t78 -68t103 -42t104 -23q0 108 -2 217t-16 217q-40 -6 -92 -18t-98 -35 t-77 -58t-31 -87zM916 778q120 -6 244 -6v58q-2 108 -3 215t-11 215h-66h-76t-76 -2q-10 -84 -11 -171t-1 -173v-136z" />
<glyph unicode="&#xb7;" horiz-adv-x="454" d="M62 722q0 28 18 47t43 31t53 18t50 6t51 -6t54 -18t43 -31t18 -47t-18 -47t-43 -31t-54 -17t-51 -5t-50 5t-53 17t-43 31t-18 47z" />
<glyph unicode="&#xb8;" horiz-adv-x="1844" d="M624 -230l152 8q-2 -8 -2 -22q0 -54 41 -76t87 -22q16 0 42 3t50 12t41 24t17 37q0 28 -23 42t-54 20t-63 7t-50 1q-8 2 -24 2l-6 226l178 -2l-30 -134q36 -4 78 -11t78 -24t60 -47t24 -76q0 -54 -33 -90t-80 -56t-100 -28t-95 -8q-58 0 -108 10t-89 34t-63 65t-28 105z " />
<glyph unicode="&#xb9;" horiz-adv-x="586" d="M62 1490l422 -4q-4 -10 -6 -20t-6 -20q-10 -36 -19 -95t-15 -122t-9 -122t-3 -95q0 -10 -1 -42t-1 -74v-88t1 -86t4 -67t9 -31q14 -10 32 -20h-272l22 20q6 4 9 37t5 79t3 101t1 104v87v50v116v78t-4 78q-40 0 -83 -1t-83 -11z" />
<glyph unicode="&#xba;" horiz-adv-x="1160" d="M20 856q0 100 56 168t140 110t181 60t177 18t177 -20t181 -63t141 -112t57 -167q0 -96 -59 -161t-145 -106t-183 -58t-173 -17q-80 0 -176 16t-179 56t-139 107t-56 169zM268 858q0 -56 31 -92t78 -57t100 -29t95 -8q40 0 93 9t101 31t82 56t34 86q0 54 -32 91t-79 60 t-101 34t-96 11t-96 -10t-100 -32t-78 -59t-32 -91z" />
<glyph unicode="&#xbb;" horiz-adv-x="902" d="M62 -56v238q70 44 139 87t133 97q-14 12 -54 44t-85 67t-84 64t-49 33v226q6 -12 33 -38t66 -59t84 -69t87 -68t76 -56t48 -34q4 -2 16 -9t16 -3v-180h-4q-8 0 -40 -22t-77 -57t-95 -76t-95 -78t-77 -67t-38 -40zM454 -56v238q70 44 139 87t133 97q-14 12 -54 44t-85 67 t-83 64t-50 33v226q6 -12 34 -38t67 -59t84 -69t87 -68t75 -56t49 -34q4 -2 15 -9t17 -3v-180h-6q-8 0 -40 -22t-76 -57t-95 -76t-95 -78t-77 -67t-39 -40z" />
<glyph unicode="&#xbc;" horiz-adv-x="1834" d="M62 1490l422 -4q-14 -44 -25 -106t-18 -129t-11 -131t-4 -108q0 -16 -1 -77t-1 -128t3 -122t11 -61q6 -6 15 -11t17 -9h-272l22 20q6 6 10 53t6 104t2 108v65v90v155t-4 155q-42 0 -84 -1t-82 -11zM254 0q24 16 56 63t69 111t75 138t71 143t60 127t43 90q18 38 50 105 t70 145t78 161t72 156t52 129t20 80q0 20 -16 26h372q-30 -2 -73 -53t-92 -129t-99 -171t-94 -181t-78 -158t-48 -102q-16 -36 -46 -94t-66 -127t-72 -142t-66 -135t-49 -109t-19 -63q0 -6 4 -10h-274zM824 240v14v124q22 18 67 57t102 88t117 103t111 103t87 87t42 56 l-14 16h286v-22l-4 -2v-4q-12 -4 -19 -29t-12 -61t-8 -80t-4 -83t-1 -69v-42v-110h88h74t74 8q2 -36 2 -72t2 -72h-240l-2 -68v-35t2 -52t4 -49t8 -26q8 -6 16 -11t16 -9q-68 2 -135 1t-137 -1q16 12 22 20q6 6 10 38t5 71t2 74t1 49q-24 0 -71 1t-103 1h-117t-115 -1 t-96 -4t-60 -9zM1074 382h160q40 0 77 1t75 1v214v72q-160 -142 -312 -288z" />
<glyph unicode="&#xbd;" horiz-adv-x="1978" d="M62 1490l422 -4q-14 -44 -25 -106t-18 -129t-11 -131t-4 -108q0 -16 -1 -77t-1 -128t3 -122t11 -61q6 -6 15 -11t17 -9h-272l22 20q6 6 10 53t6 104t2 108v65v90v155t-4 155q-42 0 -84 -1t-82 -11zM254 0q24 16 56 63t69 111t75 138t71 143t60 127t43 90q18 38 50 105 t70 145t78 161t72 156t52 129t20 80q0 20 -16 26h372q-30 -2 -73 -53t-92 -129t-99 -171t-94 -181t-78 -158t-48 -102q-16 -36 -46 -94t-66 -127t-72 -142t-66 -135t-49 -109t-19 -63q0 -6 4 -10h-274zM970 -10v140q46 12 117 34t152 53t163 72t148 89t107 103t41 117 q0 44 -24 74t-60 48t-78 26t-78 8q-48 0 -92 -10t-77 -32t-52 -59t-19 -93q0 -18 2 -36t8 -34h-236q-12 36 -12 74q0 90 42 153t108 103t147 58t157 18q66 0 149 -15t157 -50t125 -92t51 -139q0 -80 -51 -152t-125 -132t-157 -108t-145 -78q26 0 89 -1t132 0t129 4t82 9 q2 -36 2 -73t2 -73q-228 -2 -453 -3t-451 -3z" />
<glyph unicode="&#xbe;" horiz-adv-x="2246" d="M30 890q0 56 32 100h220q-16 -22 -28 -49t-12 -55q0 -46 27 -72t66 -41t82 -19t77 -4q26 0 72 5t91 19t78 37t33 57q0 38 -45 61t-104 34t-117 14t-86 3v134q32 0 86 5t104 20t87 42t37 73q0 32 -19 53t-48 34t-61 18t-56 5q-40 0 -74 -4t-61 -17t-47 -39t-32 -70 l-226 -2q24 76 67 127t100 82t125 44t142 13q52 0 122 -12t134 -39t109 -73t45 -112q0 -36 -16 -66t-40 -54t-54 -43t-58 -33q32 -10 66 -26t62 -39t47 -54t19 -69q0 -76 -55 -126t-132 -80t-161 -43t-144 -13q-64 0 -142 12t-148 44t-117 84t-47 134zM664 0q24 16 57 63 t70 111t75 138t71 143t60 127t43 90q18 38 50 105t70 145t77 161t71 156t52 129t20 80q0 8 -2 15t-12 11h370q-30 -2 -73 -53t-92 -129t-99 -171t-94 -181t-78 -158t-48 -102q-16 -36 -46 -94t-65 -127t-71 -142t-66 -135t-49 -109t-19 -63q0 -8 2 -10h-274zM1224 240v132 q26 22 73 62t102 88t115 101t111 102t88 89t49 64l-40 12q162 -4 326 0l2 -10q-14 0 -30 -10q-14 -12 -22 -63t-12 -113t-5 -120t-1 -80v-118h122q28 0 59 1t61 7l4 -136l-248 2q0 -20 -1 -58t0 -79t7 -74t22 -45h-238q12 12 19 45t9 72t2 76v55v8q-22 0 -68 1t-105 1h-124 t-121 -1t-99 -4t-57 -7zM1458 374h10h128h204v204q0 28 -1 55t-1 55q-86 -78 -171 -156t-169 -158z" />
<glyph unicode="&#xbf;" horiz-adv-x="1510" d="M-20 428q0 68 66 123t164 102t213 87t213 78t164 76t66 82q0 92 -38 178h298q2 -28 4 -58t2 -58q0 -106 -40 -172t-104 -108t-144 -69t-162 -53q-34 -12 -104 -34t-139 -54t-121 -72t-52 -86q0 -38 42 -71t108 -61t146 -51t156 -38t138 -23t92 -8q38 0 83 4t84 18t65 43 t26 81q0 46 -18 102t-34 100h276q26 -50 43 -104t17 -110q0 -98 -52 -158t-130 -92t-168 -42t-164 -10q-68 0 -168 12t-211 36t-221 62t-198 88t-143 115t-55 145zM784 1370q0 28 18 47t43 31t54 17t51 5q20 0 49 -5t54 -17t43 -31t18 -47t-18 -47t-43 -31t-54 -18t-49 -6 q-22 0 -51 6t-54 18t-43 31t-18 47z" />
<glyph unicode="&#xc0;" horiz-adv-x="1720" d="M-10 0q12 14 29 45t34 66t33 68t24 51q22 44 70 142t107 223t122 262t115 259t85 214t33 126q0 4 -1 9t-5 5h468q-4 0 -5 -5t-1 -9q0 -34 33 -126t85 -214t115 -259t122 -262t106 -223t69 -142q8 -18 24 -51t34 -68t35 -66t29 -45h-376q2 2 2 8q0 14 -11 47t-24 70 t-27 70t-20 47q-212 8 -425 6t-425 -10q-6 -14 -20 -47t-27 -69t-24 -68t-11 -46q0 -6 2 -8h-374zM366 1824l122 188l500 -272l-80 -122zM526 428l84 -2q298 0 598 12q-82 182 -163 360t-175 352q-96 -176 -178 -358t-166 -364z" />
<glyph unicode="&#xc1;" horiz-adv-x="1720" d="M-10 0q12 14 29 45t34 66t33 68t24 51q22 44 70 142t107 223t122 262t115 259t85 214t33 126q0 4 -1 9t-5 5h468q-4 0 -5 -5t-1 -9q0 -34 33 -126t85 -214t115 -259t122 -262t106 -223t69 -142q8 -18 24 -51t34 -68t35 -66t29 -45h-376q2 2 2 8q0 14 -11 47t-24 70 t-27 70t-20 47q-212 8 -425 6t-425 -10q-6 -14 -20 -47t-27 -69t-24 -68t-11 -46q0 -6 2 -8h-374zM526 428l84 -2q298 0 598 12q-82 182 -163 360t-175 352q-96 -176 -178 -358t-166 -364zM774 1720l502 272l120 -188l-540 -206z" />
<glyph unicode="&#xc2;" horiz-adv-x="1720" d="M-10 0q12 14 29 45t34 66t33 68t24 51q22 44 70 142t107 223t122 262t115 259t85 214t33 126q0 4 -1 9t-5 5h468q-4 0 -5 -5t-1 -9q0 -34 33 -126t85 -214t115 -259t122 -262t106 -223t69 -142q8 -18 24 -51t34 -68t35 -66t29 -45h-376q2 2 2 8q0 14 -11 47t-24 70 t-27 70t-20 47q-212 8 -425 6t-425 -10q-6 -14 -20 -47t-27 -69t-24 -68t-11 -46q0 -6 2 -8h-374zM474 1606q14 8 47 37t68 62t66 65t45 46q2 2 14 15t25 26t23 25t8 16h230q-2 -4 4 -11t6 -9q14 -16 54 -58t86 -88t87 -83t55 -43h-242q-4 8 -28 34t-53 57t-56 58t-35 37 q-42 -42 -78 -89t-72 -97h-254zM526 428l84 -2q298 0 598 12q-82 182 -163 360t-175 352q-96 -176 -178 -358t-166 -364z" />
<glyph unicode="&#xc3;" horiz-adv-x="1720" d="M-10 0q12 14 29 45t34 66t33 68t24 51q22 44 70 142t107 223t122 262t115 259t85 214t33 126q0 4 -1 9t-5 5h468q-4 0 -5 -5t-1 -9q0 -34 33 -126t85 -214t115 -259t122 -262t106 -223t69 -142q8 -18 24 -51t34 -68t35 -66t29 -45h-376q2 2 2 8q0 14 -11 47t-24 70 t-27 70t-20 47q-212 8 -425 6t-425 -10q-6 -14 -20 -47t-27 -69t-24 -68t-11 -46q0 -6 2 -8h-374zM526 428l84 -2q298 0 598 12q-82 182 -163 360t-175 352q-96 -176 -178 -358t-166 -364zM580 1788q38 32 91 51t101 19q46 0 82 -12t66 -27t55 -27t49 -12q48 0 105 27t97 55 l-6 -180q-44 -24 -99 -38t-101 -14q-52 0 -84 12t-58 27t-52 27t-64 12q-46 0 -97 -33t-81 -67z" />
<glyph unicode="&#xc4;" horiz-adv-x="1720" d="M-10 0q12 14 29 45t34 66t33 68t24 51q22 44 70 142t107 223t122 262t115 259t85 214t33 126q0 4 -1 9t-5 5h468q-4 0 -5 -5t-1 -9q0 -34 33 -126t85 -214t115 -259t122 -262t106 -223t69 -142q8 -18 24 -51t34 -68t35 -66t29 -45h-376q2 2 2 8q0 14 -11 47t-24 70 t-27 70t-20 47q-212 8 -425 6t-425 -10q-6 -14 -20 -47t-27 -69t-24 -68t-11 -46q0 -6 2 -8h-374zM472 1732q0 28 18 47t43 31t54 18t51 6t51 -6t54 -18t43 -31t18 -47t-18 -47t-43 -31t-54 -18t-51 -6t-51 6t-54 18t-43 31t-18 47zM526 428l84 -2q298 0 598 12 q-82 182 -163 360t-175 352q-96 -176 -178 -358t-166 -364zM964 1732q0 28 18 47t43 31t53 18t50 6t51 -6t54 -18t43 -31t18 -47t-18 -47t-43 -31t-54 -18t-51 -6t-50 6t-53 18t-43 31t-18 47z" />
<glyph unicode="&#xc5;" horiz-adv-x="1720" d="M-10 0q12 14 29 45t34 66t33 68t24 51q22 44 70 142t107 223t122 262t115 259t85 214t33 126q0 4 -1 9t-5 5h134q-36 8 -69 21t-59 34t-42 50t-16 67q0 52 30 88t74 57t95 30t93 9t92 -10t95 -32t75 -58t30 -88q0 -36 -17 -64t-45 -49t-63 -34t-71 -21h132q-4 0 -5 -5 t-1 -9q0 -34 33 -126t85 -214t115 -259t122 -262t106 -223t69 -142q8 -18 24 -51t34 -68t35 -66t29 -45h-376q2 2 2 8q0 14 -11 47t-24 70t-27 70t-20 47q-212 8 -425 6t-425 -10q-6 -14 -20 -47t-27 -69t-24 -68t-11 -46q0 -6 2 -8h-374zM526 428l84 -2q298 0 598 12 q-82 182 -163 360t-175 352q-96 -176 -178 -358t-166 -364zM750 1642q0 -24 12 -40t31 -26t41 -14t42 -4q18 0 40 4t41 14t32 26t13 40q0 22 -12 38t-31 27t-41 16t-42 5t-42 -4t-41 -15t-31 -27t-12 -40z" />
<glyph unicode="&#xc6;" horiz-adv-x="2784" d="M-144 4q22 16 40 34l36 36q44 42 87 84t85 84l91 91l147 147t182 185t197 203t193 201t167 180t120 139t55 80l-6 6h1452l-22 -226q-10 4 -50 6t-95 4t-119 3t-121 1h-101h-60q-256 0 -514 -6q-10 -100 -12 -199t-4 -201l922 10l-2 -214q-14 6 -73 8t-130 3t-134 1h-83 q-248 0 -500 -6q0 -90 -1 -179t-1 -179v-80q142 -6 282 -6h284h60h101t120 1t118 2t95 3t50 6l22 -222l-1452 -4q10 12 17 46t10 73t4 75t1 52q-76 4 -151 4h-151q-146 0 -291 -1t-291 -9q-8 -8 -40 -43t-68 -75t-64 -75t-26 -43h-376zM610 432q28 -2 55 -2h55q300 0 598 12 q2 108 2 212v212v82v99t-2 97q-182 -176 -358 -353t-350 -359z" />
<glyph unicode="&#xc7;" horiz-adv-x="1926" d="M52 590q0 138 53 259t141 220t206 176t248 130t265 80t257 27q116 0 237 -18t220 -69t162 -140t63 -233q0 -52 -8 -104t-24 -102h-390q34 46 67 107t33 123q0 70 -47 115t-113 71t-139 36t-127 10q-130 0 -263 -48t-241 -134t-177 -204t-69 -258q0 -84 31 -148t84 -110 t121 -78t143 -50t151 -26t142 -8q164 0 326 28t322 72l78 -208q-86 -28 -181 -48t-192 -33t-194 -18t-187 -5h-6l-24 -106q36 -4 78 -11t78 -24t60 -47t24 -76q0 -54 -32 -90t-79 -56t-100 -28t-95 -8q-58 0 -109 10t-89 34t-62 65t-28 105l150 8q0 -6 -1 -11t-1 -11 q0 -54 42 -76t88 -22q16 0 42 3t50 12t41 24t17 37q0 28 -23 42t-55 20t-63 7t-49 1q-6 2 -13 2h-13l-6 204q-90 10 -185 29t-186 52t-173 78t-143 106t-97 140t-36 175zM872 10q46 -4 89 -6t83 -2l6 28l-178 2v-22z" />
<glyph unicode="&#xc8;" horiz-adv-x="1596" d="M62 1474l1452 -4l-22 -222q-10 4 -49 6t-95 4t-120 3t-121 1h-101h-60q-256 0 -514 -6q-10 -100 -12 -199t-2 -201l920 10l-2 -214q-8 2 -39 5t-73 4t-91 2t-92 1h-77h-46q-250 0 -502 -6q0 -90 -1 -179t-1 -179v-80q142 -6 283 -6h283h58h102t121 1t119 2t95 3t49 6 l22 -222l-1452 -4q12 12 20 77t13 157t6 200t1 206t-1 173t-1 105v62t-1 98t-3 115t-7 113t-13 91t-20 53q-6 6 -13 12t-13 12zM468 1804l122 188l500 -272l-80 -122z" />
<glyph unicode="&#xc9;" horiz-adv-x="1596" d="M62 1474l1452 -4l-22 -222q-10 4 -49 6t-95 4t-120 3t-121 1h-101h-60q-256 0 -514 -6q-10 -100 -12 -199t-2 -201l920 10l-2 -214q-8 2 -39 5t-73 4t-91 2t-92 1h-77h-46q-250 0 -502 -6q0 -90 -1 -179t-1 -179v-80q142 -6 283 -6h283h58h102t121 1t119 2t95 3t49 6 l22 -222l-1452 -4q12 12 20 77t13 157t6 200t1 206t-1 173t-1 105v62t-1 98t-3 115t-7 113t-13 91t-20 53q-6 6 -13 12t-13 12zM630 1720l502 272l120 -188l-540 -206z" />
<glyph unicode="&#xca;" horiz-adv-x="1596" d="M62 1474l1452 -4l-22 -222q-10 4 -49 6t-95 4t-120 3t-121 1h-101h-60q-256 0 -514 -6q-10 -100 -12 -199t-2 -201l920 10l-2 -214q-8 2 -39 5t-73 4t-91 2t-92 1h-77h-46q-250 0 -502 -6q0 -90 -1 -179t-1 -179v-80q142 -6 283 -6h283h58h102t121 1t119 2t95 3t49 6 l22 -222l-1452 -4q12 12 20 77t13 157t6 200t1 206t-1 173t-1 105v62t-1 98t-3 115t-7 113t-13 91t-20 53q-6 6 -13 12t-13 12zM412 1628q14 8 47 37t68 62t66 65t45 46q2 2 14 15t25 26t23 25t8 16h230q-2 -4 4 -11t6 -9q14 -16 54 -58t86 -88t87 -83t55 -43h-242 q-4 8 -28 34t-53 57t-56 58t-35 37q-42 -42 -78 -89t-72 -97h-254z" />
<glyph unicode="&#xcb;" horiz-adv-x="1596" d="M62 1474l1452 -4l-22 -222q-10 4 -49 6t-95 4t-120 3t-121 1h-101h-60q-256 0 -514 -6q-10 -100 -12 -199t-2 -201l920 10l-2 -214q-8 2 -39 5t-73 4t-91 2t-92 1h-77h-46q-250 0 -502 -6q0 -90 -1 -179t-1 -179v-80q142 -6 283 -6h283h58h102t121 1t119 2t95 3t49 6 l22 -222l-1452 -4q12 12 20 77t13 157t6 200t1 206t-1 173t-1 105v62t-1 98t-3 115t-7 113t-13 91t-20 53q-6 6 -13 12t-13 12zM430 1732q0 28 18 47t43 31t54 18t51 6t51 -6t54 -18t43 -31t18 -47t-18 -47t-43 -31t-54 -18t-51 -6t-51 6t-54 18t-43 31t-18 47zM922 1732 q0 28 18 47t43 31t53 18t50 6t51 -6t54 -18t43 -31t18 -47t-18 -47t-43 -31t-54 -18t-51 -6t-50 6t-53 18t-43 31t-18 47z" />
<glyph unicode="&#xcc;" d="M-228 1824l122 188l500 -272l-80 -122zM62 1474h448q-26 0 -43 -46t-27 -116t-15 -155t-7 -163t-2 -139v-83q0 -118 -1 -235t-1 -237v-62t2 -95t9 -91t19 -52h-350q12 12 20 77t13 157t6 200t1 206t-1 173t-1 105q0 18 1 64t0 106t-4 126t-11 122t-22 94t-34 44z" />
<glyph unicode="&#xcd;" d="M62 1474h448q-26 0 -43 -46t-27 -116t-15 -155t-7 -163t-2 -139v-83q0 -118 -1 -235t-1 -237v-62t2 -95t9 -91t19 -52h-350q12 12 20 77t13 157t6 200t1 206t-1 173t-1 105q0 18 1 64t0 106t-4 126t-11 122t-22 94t-34 44zM182 1740l502 272l120 -188l-540 -206z" />
<glyph unicode="&#xce;" d="M-120 1628q14 8 47 37t68 62t66 65t45 46q2 2 14 15t25 26t23 25t8 16h230q-2 -4 4 -11t6 -9q14 -16 54 -58t86 -88t87 -83t55 -43h-242q-4 8 -28 34t-53 57t-56 58t-35 37q-42 -42 -78 -89t-72 -97h-254zM62 1474h448q-26 0 -43 -46t-27 -116t-15 -155t-7 -163t-2 -139 v-83q0 -118 -1 -235t-1 -237v-62t2 -95t9 -91t19 -52h-350q12 12 20 77t13 157t6 200t1 206t-1 173t-1 105q0 18 1 64t0 106t-4 126t-11 122t-22 94t-34 44z" />
<glyph unicode="&#xcf;" d="M-122 1732q0 28 18 47t43 31t54 18t51 6t51 -6t54 -18t43 -31t18 -47t-18 -47t-43 -31t-54 -18t-51 -6t-51 6t-54 18t-43 31t-18 47zM62 1474h448q-26 0 -43 -46t-27 -116t-15 -155t-7 -163t-2 -139v-83q0 -118 -1 -235t-1 -237v-62t2 -95t9 -91t19 -52h-350q12 12 20 77 t13 157t6 200t1 206t-1 173t-1 105q0 18 1 64t0 106t-4 126t-11 122t-22 94t-34 44zM370 1732q0 28 18 47t43 31t53 18t50 6t51 -6t54 -18t43 -31t18 -47t-18 -47t-43 -31t-54 -18t-51 -6t-50 6t-53 18t-43 31t-18 47z" />
<glyph unicode="&#xd0;" horiz-adv-x="1838" d="M-82 842q10 -4 33 -7t51 -5t59 -3t57 -1q0 88 -3 197t-9 207t-17 167t-27 79l390 -2q118 0 264 -17t294 -54t288 -99t248 -151t174 -209t66 -274q0 -168 -75 -283t-198 -189t-279 -115t-318 -59t-314 -21t-268 -3h-240q6 10 10 52t7 101t5 129t3 137t1 124v91 q-66 -2 -122 -5t-74 -11zM414 636q0 -116 1 -230t7 -228q26 0 52 -1t52 -1q76 0 177 6t209 24t212 50t186 86t133 131t51 183q0 116 -45 208t-120 163t-174 120t-206 81t-215 46t-202 14q-26 0 -52 -1t-52 -3q-6 -114 -9 -227t-5 -227q68 2 141 4t135 6t107 8t59 10l-6 -244 q-10 6 -62 10t-119 7t-137 4t-118 1z" />
<glyph unicode="&#xd1;" horiz-adv-x="1696" d="M62 1474h484q-6 -2 -6 -16q0 -34 45 -118t116 -193t156 -231t164 -232t142 -195t91 -121q4 138 3 275t-1 275q0 18 1 64t0 106t-4 126t-11 122t-22 94t-34 44h448q-26 0 -42 -46t-27 -116t-16 -155t-6 -163t-1 -139v-83q0 -118 -2 -235t-2 -237v-61t2 -95t9 -92t19 -52 h-352q-26 30 -49 63t-47 65l-152 204q-128 172 -258 342t-268 336q-8 -66 -10 -133t-4 -133q-4 -102 -6 -204t-2 -204v-67t2 -107t7 -104t15 -58h-350q12 12 20 77t12 157t6 199t2 205t-1 174t-1 106q0 18 1 64t0 106t-4 126t-11 122t-22 94t-34 44zM518 1768q38 32 91 51 t101 19q46 0 82 -12t66 -27t55 -27t49 -12q48 0 105 27t97 55l-6 -180q-44 -24 -99 -38t-101 -14q-52 0 -84 12t-58 27t-52 27t-64 12q-46 0 -97 -33t-81 -67z" />
<glyph unicode="&#xd2;" horiz-adv-x="1832" d="M52 726q0 184 73 326t193 238t276 146t322 50q164 0 320 -54t277 -155t194 -244t73 -321q0 -176 -77 -312t-201 -229t-280 -141t-314 -48q-172 0 -327 47t-272 140t-187 232t-70 325zM388 728q0 -112 39 -212t109 -175t165 -119t209 -44q106 0 203 45t170 120t117 172 t44 203q0 146 -42 253t-114 178t-168 106t-204 35q-112 0 -208 -47t-167 -125t-112 -179t-41 -211zM592 1804l122 188l500 -272l-80 -122z" />
<glyph unicode="&#xd3;" horiz-adv-x="1832" d="M52 726q0 184 73 326t193 238t276 146t322 50q164 0 320 -54t277 -155t194 -244t73 -321q0 -176 -77 -312t-201 -229t-280 -141t-314 -48q-172 0 -327 47t-272 140t-187 232t-70 325zM388 728q0 -112 39 -212t109 -175t165 -119t209 -44q106 0 203 45t170 120t117 172 t44 203q0 146 -42 253t-114 178t-168 106t-204 35q-112 0 -208 -47t-167 -125t-112 -179t-41 -211zM672 1720l502 272l120 -188l-540 -206z" />
<glyph unicode="&#xd4;" horiz-adv-x="1832" d="M52 726q0 184 73 326t193 238t276 146t322 50q164 0 320 -54t277 -155t194 -244t73 -321q0 -176 -77 -312t-201 -229t-280 -141t-314 -48q-172 0 -327 47t-272 140t-187 232t-70 325zM388 728q0 -112 39 -212t109 -175t165 -119t209 -44q106 0 203 45t170 120t117 172 t44 203q0 146 -42 253t-114 178t-168 106t-204 35q-112 0 -208 -47t-167 -125t-112 -179t-41 -211zM512 1606q14 8 47 37t68 62t66 65t45 46q2 2 14 15t25 26t23 25t8 16h230q-2 -4 4 -11t6 -9q14 -16 54 -58t86 -88t87 -83t55 -43h-242q-4 8 -28 34t-53 57t-56 58t-35 37 q-42 -42 -78 -89t-72 -97h-254z" />
<glyph unicode="&#xd5;" horiz-adv-x="1832" d="M52 726q0 184 73 326t193 238t276 146t322 50q164 0 320 -54t277 -155t194 -244t73 -321q0 -176 -77 -312t-201 -229t-280 -141t-314 -48q-172 0 -327 47t-272 140t-187 232t-70 325zM388 728q0 -112 39 -212t109 -175t165 -119t209 -44q106 0 203 45t170 120t117 172 t44 203q0 146 -42 253t-114 178t-168 106t-204 35q-112 0 -208 -47t-167 -125t-112 -179t-41 -211zM618 1788q38 32 91 51t101 19q46 0 82 -12t66 -27t55 -27t49 -12q48 0 105 27t97 55l-6 -180q-44 -24 -99 -38t-101 -14q-52 0 -84 12t-58 27t-52 27t-64 12q-46 0 -97 -33 t-81 -67z" />
<glyph unicode="&#xd6;" horiz-adv-x="1832" d="M52 726q0 184 73 326t193 238t276 146t322 50q164 0 320 -54t277 -155t194 -244t73 -321q0 -176 -77 -312t-201 -229t-280 -141t-314 -48q-172 0 -327 47t-272 140t-187 232t-70 325zM388 728q0 -112 39 -212t109 -175t165 -119t209 -44q106 0 203 45t170 120t117 172 t44 203q0 146 -42 253t-114 178t-168 106t-204 35q-112 0 -208 -47t-167 -125t-112 -179t-41 -211zM550 1732q0 28 18 47t43 31t54 18t51 6t51 -6t54 -18t43 -31t18 -47t-18 -47t-43 -31t-54 -18t-51 -6t-51 6t-54 18t-43 31t-18 47zM1042 1732q0 28 18 47t43 31t53 18t50 6 t51 -6t54 -18t43 -31t18 -47t-18 -47t-43 -31t-54 -18t-51 -6t-50 6t-53 18t-43 31t-18 47z" />
<glyph unicode="&#xd7;" horiz-adv-x="1066" d="M40 878l210 170q2 -8 22 -29t49 -50t64 -60t67 -59l56 -49t32 -29q14 14 59 54t93 85t88 86t46 55l200 -178q-14 -2 -61 -36t-100 -75t-100 -79t-61 -50q18 -16 63 -53t95 -78t95 -74t63 -41l-180 -160q-8 18 -48 57t-90 81t-95 80t-63 52q-10 -10 -35 -31t-56 -48 t-65 -57t-64 -57t-51 -49t-27 -32l-190 152q20 6 66 41t97 77t97 81t64 55q-18 14 -66 52t-104 80t-104 76t-66 40z" />
<glyph unicode="&#xd8;" horiz-adv-x="1864" d="M52 718q0 186 75 328t198 238t281 145t326 49q54 0 108 -7t106 -19q6 14 15 34t16 42t13 42t6 36t-10 22h384q-22 -2 -52 -35t-61 -75t-57 -83t-36 -57q208 -100 329 -269t121 -405q0 -178 -79 -314t-206 -228t-286 -140t-319 -48q-138 0 -280 34q-6 -10 -16 -31t-20 -44 t-17 -44t-7 -33q0 -6 2 -8h-292q16 12 39 43t46 66t43 69t30 52q-198 96 -299 259t-101 381zM394 720q0 -120 44 -228t138 -190q46 90 90 179t88 179q74 152 150 302l152 300q-30 10 -61 15t-63 5q-112 0 -210 -46t-171 -124t-115 -180t-42 -212zM744 204q90 -34 182 -34 q108 0 206 44t173 119t120 173t45 206q0 138 -59 254t-169 200q-68 -124 -131 -248t-125 -250q-58 -120 -119 -234t-123 -230z" />
<glyph unicode="&#xd9;" horiz-adv-x="1766" d="M62 1470h376q-8 -24 -12 -74t-6 -106t-2 -109v-79q0 -144 4 -287t4 -287q0 -90 42 -153t107 -103t145 -59t158 -19q74 0 158 18t154 59t116 104t46 153q0 144 4 287t4 287v79t-2 109t-6 106t-12 74h364q-18 -18 -27 -49t-13 -66t-4 -68v-57q0 -176 6 -347t6 -347 q0 -100 -36 -179t-98 -139t-143 -103t-170 -70t-180 -39t-173 -12q-126 0 -263 29t-251 93t-189 167t-75 253q0 176 6 347t6 345v58t-4 69t-13 66t-27 49zM490 1762l122 188l500 -272l-80 -122z" />
<glyph unicode="&#xda;" horiz-adv-x="1766" d="M62 1470h376q-8 -24 -12 -74t-6 -106t-2 -109v-79q0 -144 4 -287t4 -287q0 -90 42 -153t107 -103t145 -59t158 -19q74 0 158 18t154 59t116 104t46 153q0 144 4 287t4 287v79t-2 109t-6 106t-12 74h364q-18 -18 -27 -49t-13 -66t-4 -68v-57q0 -176 6 -347t6 -347 q0 -100 -36 -179t-98 -139t-143 -103t-170 -70t-180 -39t-173 -12q-126 0 -263 29t-251 93t-189 167t-75 253q0 176 6 347t6 345v58t-4 69t-13 66t-27 49zM650 1658l502 272l120 -188l-540 -206z" />
<glyph unicode="&#xdb;" horiz-adv-x="1766" d="M62 1470h376q-8 -24 -12 -74t-6 -106t-2 -109v-79q0 -144 4 -287t4 -287q0 -90 42 -153t107 -103t145 -59t158 -19q74 0 158 18t154 59t116 104t46 153q0 144 4 287t4 287v79t-2 109t-6 106t-12 74h364q-18 -18 -27 -49t-13 -66t-4 -68v-57q0 -176 6 -347t6 -347 q0 -100 -36 -179t-98 -139t-143 -103t-170 -70t-180 -39t-173 -12q-126 0 -263 29t-251 93t-189 167t-75 253q0 176 6 347t6 345v58t-4 69t-13 66t-27 49zM474 1586q14 8 47 37t68 62t66 65t45 46q2 2 14 15t25 26t23 25t8 16h230q-2 -4 4 -11t6 -9q14 -16 54 -58t86 -88 t87 -83t55 -43h-242q-4 8 -28 34t-53 57t-56 58t-35 37q-42 -42 -78 -89t-72 -97h-254z" />
<glyph unicode="&#xdc;" horiz-adv-x="1766" d="M62 1470h376q-8 -24 -12 -74t-6 -106t-2 -109v-79q0 -144 4 -287t4 -287q0 -90 42 -153t107 -103t145 -59t158 -19q74 0 158 18t154 59t116 104t46 153q0 144 4 287t4 287v79t-2 109t-6 106t-12 74h364q-18 -18 -27 -49t-13 -66t-4 -68v-57q0 -176 6 -347t6 -347 q0 -100 -36 -179t-98 -139t-143 -103t-170 -70t-180 -39t-173 -12q-126 0 -263 29t-251 93t-189 167t-75 253q0 176 6 347t6 345v58t-4 69t-13 66t-27 49zM492 1732q0 28 18 47t43 31t54 18t51 6t51 -6t54 -18t43 -31t18 -47t-18 -47t-43 -31t-54 -18t-51 -6t-51 6t-54 18 t-43 31t-18 47zM984 1732q0 28 18 47t43 31t53 18t50 6t51 -6t54 -18t43 -31t18 -47t-18 -47t-43 -31t-54 -18t-51 -6t-50 6t-53 18t-43 31t-18 47z" />
<glyph unicode="&#xdd;" horiz-adv-x="1278" d="M-358 1474q120 0 237 -1t237 1q-8 -4 -8 -18q0 -30 34 -88t86 -131t116 -153t124 -152t110 -128t74 -82h10q24 26 73 82t110 128t124 152t116 153t86 131t33 88q0 12 -8 18q118 -2 235 -1t235 1q-36 -20 -104 -89t-152 -165t-176 -208t-176 -217l-152 -190t-102 -129 q-2 -42 -2 -84v-86v-64t3 -95t9 -92t20 -55h-366q10 10 17 46t11 85t5 105t2 106t1 89v55q-34 42 -102 127t-153 188t-177 215t-176 207t-152 164t-102 87zM530 1638l502 272l120 -188l-540 -206z" />
<glyph unicode="&#xde;" horiz-adv-x="1556" d="M62 1474h448q-24 -4 -40 -41t-25 -85t-13 -94t-4 -66q112 -2 223 -6t225 -14q64 -6 142 -15t158 -27t155 -48t134 -74t95 -107t36 -149q0 -112 -66 -189t-172 -128t-238 -80t-263 -43t-249 -18t-194 -4v-34v-57t3 -75t9 -72t18 -48h-350q10 12 17 58t12 109t7 135t3 138 t1 117v73q0 72 -1 144t-1 144q0 20 1 67t0 107t-4 124t-11 119t-22 93t-34 46zM416 484q76 2 154 4t156 8q60 4 147 13t167 35t137 75t57 133q0 56 -38 94t-99 62t-136 38t-148 20t-136 7t-99 1h-160q-2 -124 -1 -245t-1 -245z" />
<glyph unicode="&#xdf;" horiz-adv-x="1854" d="M-10 798q24 -6 54 -9t61 -3h62h55l-4 144t-2 142q0 68 16 133t44 125q48 102 123 169t166 108t193 58t208 17q86 0 169 -15t147 -53t103 -103t39 -167q0 -78 -32 -146t-81 -127t-106 -110t-106 -95t-81 -83t-32 -75q0 -64 61 -104t153 -69t199 -54t199 -58t153 -81 t61 -124q0 -78 -58 -131t-140 -85t-170 -46t-150 -14q-144 0 -279 25t-267 81q-12 6 -33 16t-43 20t-42 18t-30 8q2 4 26 27t52 52t51 54t23 31q104 -80 229 -118t255 -38q14 0 56 3t85 11t77 24t34 40q0 32 -57 57t-142 48t-185 52t-185 70t-142 100t-57 145q0 70 20 125 t60 111q30 42 82 94t103 107t88 112t37 111q0 104 -57 157t-161 53q-82 0 -151 -34t-118 -90t-77 -129t-28 -151q0 -144 -2 -289t-2 -291v-57v-101t2 -122t4 -118t7 -93t11 -45h-328q8 6 12 48t6 91t2 93v56q0 86 -1 171t-3 171q-52 -2 -116 -1t-114 -9z" />
<glyph unicode="&#xe0;" horiz-adv-x="1278" d="M40 286q0 70 51 120t131 83t180 51t196 28t180 12t132 4q0 28 1 54t1 54q0 50 -18 87t-49 61t-73 35t-88 11q-44 0 -95 -12t-97 -36t-80 -61t-42 -85l-252 34q36 92 100 156t145 104t173 59t184 19q88 0 171 -22t148 -67t104 -115t39 -166q0 -102 -3 -203t-3 -203v-65 t3 -98t9 -94t18 -55h-370q34 10 42 45t10 63q-90 -28 -182 -42t-184 -14q-60 0 -143 10t-158 38t-128 78t-53 132zM312 286q0 -30 32 -46t75 -25t85 -11t60 -2q84 0 170 12t166 38q2 36 3 72t1 70l-52 2q-18 0 -65 -1t-107 -4t-125 -10t-119 -19t-89 -31t-35 -45zM386 1394 l122 188l500 -272l-80 -122z" />
<glyph unicode="&#xe1;" horiz-adv-x="1278" d="M40 286q0 70 51 120t131 83t180 51t196 28t180 12t132 4q0 28 1 54t1 54q0 50 -18 87t-49 61t-73 35t-88 11q-44 0 -95 -12t-97 -36t-80 -61t-42 -85l-252 34q36 92 100 156t145 104t173 59t184 19q88 0 171 -22t148 -67t104 -115t39 -166q0 -102 -3 -203t-3 -203v-65 t3 -98t9 -94t18 -55h-370q34 10 42 45t10 63q-90 -28 -182 -42t-184 -14q-60 0 -143 10t-158 38t-128 78t-53 132zM312 286q0 -30 32 -46t75 -25t85 -11t60 -2q84 0 170 12t166 38q2 36 3 72t1 70l-52 2q-18 0 -65 -1t-107 -4t-125 -10t-119 -19t-89 -31t-35 -45zM510 1310 l502 272l120 -188l-540 -206z" />
<glyph unicode="&#xe2;" horiz-adv-x="1278" d="M40 286q0 70 51 120t131 83t180 51t196 28t180 12t132 4q0 28 1 54t1 54q0 50 -18 87t-49 61t-73 35t-88 11q-44 0 -95 -12t-97 -36t-80 -61t-42 -85l-252 34q36 92 100 156t145 104t173 59t184 19q88 0 171 -22t148 -67t104 -115t39 -166q0 -102 -3 -203t-3 -203v-65 t3 -98t9 -94t18 -55h-370q34 10 42 45t10 63q-90 -28 -182 -42t-184 -14q-60 0 -143 10t-158 38t-128 78t-53 132zM248 1200q14 8 47 37t68 62t66 65t45 46q2 2 14 15t25 26t23 25t8 16h230q-2 -4 4 -11t6 -9q14 -16 54 -58t86 -88t87 -83t55 -43h-242q-4 8 -28 34t-53 57 t-56 58t-35 37q-42 -42 -78 -89t-72 -97h-254zM312 286q0 -30 32 -46t75 -25t85 -11t60 -2q84 0 170 12t166 38q2 36 3 72t1 70l-52 2q-18 0 -65 -1t-107 -4t-125 -10t-119 -19t-89 -31t-35 -45z" />
<glyph unicode="&#xe3;" horiz-adv-x="1278" d="M40 286q0 70 51 120t131 83t180 51t196 28t180 12t132 4q0 28 1 54t1 54q0 50 -18 87t-49 61t-73 35t-88 11q-44 0 -95 -12t-97 -36t-80 -61t-42 -85l-252 34q36 92 100 156t145 104t173 59t184 19q88 0 171 -22t148 -67t104 -115t39 -166q0 -102 -3 -203t-3 -203v-65 t3 -98t9 -94t18 -55h-370q34 10 42 45t10 63q-90 -28 -182 -42t-184 -14q-60 0 -143 10t-158 38t-128 78t-53 132zM312 286q0 -30 32 -46t75 -25t85 -11t60 -2q84 0 170 12t166 38q2 36 3 72t1 70l-52 2q-18 0 -65 -1t-107 -4t-125 -10t-119 -19t-89 -31t-35 -45zM374 1360 q38 32 91 51t101 19q46 0 82 -12t66 -27t55 -27t49 -12q48 0 105 27t97 55l-6 -180q-44 -24 -99 -38t-101 -14q-52 0 -84 12t-58 27t-52 27t-64 12q-46 0 -97 -33t-81 -67z" />
<glyph unicode="&#xe4;" horiz-adv-x="1278" d="M40 286q0 70 51 120t131 83t180 51t196 28t180 12t132 4q0 28 1 54t1 54q0 50 -18 87t-49 61t-73 35t-88 11q-44 0 -95 -12t-97 -36t-80 -61t-42 -85l-252 34q36 92 100 156t145 104t173 59t184 19q88 0 171 -22t148 -67t104 -115t39 -166q0 -102 -3 -203t-3 -203v-65 t3 -98t9 -94t18 -55h-370q34 10 42 45t10 63q-90 -28 -182 -42t-184 -14q-60 0 -143 10t-158 38t-128 78t-53 132zM308 1284q0 28 18 47t43 31t54 18t51 6t51 -6t54 -18t43 -31t18 -47t-18 -47t-43 -31t-54 -18t-51 -6t-51 6t-54 18t-43 31t-18 47zM312 286q0 -30 32 -46 t75 -25t85 -11t60 -2q84 0 170 12t166 38q2 36 3 72t1 70l-52 2q-18 0 -65 -1t-107 -4t-125 -10t-119 -19t-89 -31t-35 -45zM800 1284q0 28 18 47t43 31t53 18t50 6t51 -6t54 -18t43 -31t18 -47t-18 -47t-43 -31t-54 -18t-51 -6t-50 6t-53 18t-43 31t-18 47z" />
<glyph unicode="&#xe5;" horiz-adv-x="1278" d="M40 286q0 70 51 120t131 83t180 51t196 28t180 12t132 4q0 28 1 54t1 54q0 50 -18 87t-49 61t-73 35t-88 11q-44 0 -95 -12t-97 -36t-80 -61t-42 -85l-252 34q32 80 85 140t121 100t146 63t160 31q-36 6 -73 19t-65 34t-46 51t-18 70q0 52 30 88t75 58t95 31t92 9t93 -10 t96 -33t75 -59t30 -88q0 -38 -19 -67t-50 -50t-69 -34t-76 -19q76 -8 145 -34t122 -71t84 -110t31 -151q0 -102 -3 -203t-3 -203v-65t3 -98t9 -94t18 -55h-370q34 10 42 45t10 63q-90 -28 -182 -42t-184 -14q-60 0 -143 10t-158 38t-128 78t-53 132zM312 286q0 -30 32 -46 t75 -25t85 -11t60 -2q84 0 170 12t166 38q2 36 3 72t1 70l-52 2q-18 0 -65 -1t-107 -4t-125 -10t-119 -19t-89 -31t-35 -45zM594 1236q0 -24 12 -40t31 -27t41 -15t42 -4q18 0 40 5t42 15t33 26t13 38q0 24 -13 40t-32 27t-41 16t-42 5t-42 -5t-41 -15t-31 -26t-12 -40z" />
<glyph unicode="&#xe6;" horiz-adv-x="2152" d="M40 284q0 70 52 119t133 82t182 51t198 27t180 12t131 3q2 28 2 57v59q0 52 -19 90t-50 62t-73 36t-90 12q-44 0 -97 -12t-100 -36t-82 -60t-43 -86l-244 32q36 90 100 153t145 103t173 58t182 18q62 0 125 -10t119 -33t102 -63t76 -100q102 86 226 123t254 37 q108 0 192 -35t140 -98t85 -149t29 -190q0 -98 -30 -188h-846q20 -64 64 -104t100 -63t119 -32t121 -9q32 0 90 5t119 16t115 28t78 39l94 -164q-136 -50 -259 -77t-269 -27q-98 0 -197 23t-185 69q0 -14 2 -43t12 -43h-324q6 6 10 21t7 33t5 34t2 24q-90 -30 -185 -45 t-191 -15q-58 0 -141 10t-158 38t-128 78t-53 130zM304 284q0 -32 33 -50t76 -27t86 -11t63 -2q84 0 174 12t170 38l6 156h-60q-20 0 -68 -1t-109 -4t-126 -10t-120 -20t-90 -33t-35 -48zM1192 536h588q2 16 3 33t1 33q0 118 -49 178t-171 60q-64 0 -124 -25t-110 -67 t-87 -97t-51 -115z" />
<glyph unicode="&#xe7;" horiz-adv-x="1292" d="M62 418q0 146 71 257t182 186t246 113t265 38q72 0 144 -11t130 -41t94 -84t36 -140q0 -44 -8 -86t-20 -84h-310q26 28 52 66t26 76q0 36 -26 59t-62 35t-75 17t-65 5q-82 0 -154 -29t-126 -80t-85 -121t-31 -154q0 -78 33 -124t84 -69t115 -29t128 -6q98 0 204 16 t200 44l54 -178q-96 -36 -214 -53t-222 -17h-12l-24 -106q36 -4 78 -12t78 -25t60 -46t24 -77q0 -54 -32 -89t-79 -55t-100 -28t-95 -8q-58 0 -108 10t-89 34t-63 65t-28 105l150 6v-22q0 -52 41 -75t87 -23q16 0 42 3t50 12t41 24t17 39q0 26 -23 40t-55 20t-63 7t-49 3 h-26l-6 212q-86 12 -172 37t-155 70t-112 112t-43 161zM544 38q46 -8 89 -10t83 -4l6 26l-178 2v-14z" />
<glyph unicode="&#xe8;" horiz-adv-x="1270" d="M52 416q0 142 56 254t150 189t218 118t260 41q108 0 192 -35t140 -98t85 -149t29 -190q0 -100 -30 -192h-834q20 -60 63 -98t98 -59t116 -29t115 -8q34 0 91 5t117 16t113 27t79 40l98 -172q-132 -50 -260 -78t-270 -28q-98 0 -208 26t-203 81t-154 139t-61 200zM316 542 h572q6 60 1 113t-27 92t-66 61t-118 22q-60 0 -119 -24t-107 -63t-84 -92t-52 -109zM386 1334l122 188l500 -272l-80 -122z" />
<glyph unicode="&#xe9;" horiz-adv-x="1270" d="M52 416q0 142 56 254t150 189t218 118t260 41q108 0 192 -35t140 -98t85 -149t29 -190q0 -100 -30 -192h-834q20 -60 63 -98t98 -59t116 -29t115 -8q34 0 91 5t117 16t113 27t79 40l98 -172q-132 -50 -260 -78t-270 -28q-98 0 -208 26t-203 81t-154 139t-61 200zM316 542 h572q6 60 1 113t-27 92t-66 61t-118 22q-60 0 -119 -24t-107 -63t-84 -92t-52 -109zM490 1272l502 272l120 -188l-540 -206z" />
<glyph unicode="&#xea;" horiz-adv-x="1270" d="M52 416q0 142 56 254t150 189t218 118t260 41q108 0 192 -35t140 -98t85 -149t29 -190q0 -100 -30 -192h-834q20 -60 63 -98t98 -59t116 -29t115 -8q34 0 91 5t117 16t113 27t79 40l98 -172q-132 -50 -260 -78t-270 -28q-98 0 -208 26t-203 81t-154 139t-61 200z M310 1158q14 8 47 37t68 62t66 65t45 46q2 2 14 15t25 26t23 25t8 16h230q-2 -4 4 -11t6 -9q14 -16 54 -58t86 -88t87 -83t55 -43h-242q-4 8 -28 34t-53 57t-56 58t-35 37q-42 -42 -78 -89t-72 -97h-254zM316 542h572q6 60 1 113t-27 92t-66 61t-118 22q-60 0 -119 -24 t-107 -63t-84 -92t-52 -109z" />
<glyph unicode="&#xeb;" horiz-adv-x="1270" d="M52 416q0 142 56 254t150 189t218 118t260 41q108 0 192 -35t140 -98t85 -149t29 -190q0 -100 -30 -192h-834q20 -60 63 -98t98 -59t116 -29t115 -8q34 0 91 5t117 16t113 27t79 40l98 -172q-132 -50 -260 -78t-270 -28q-98 0 -208 26t-203 81t-154 139t-61 200zM316 542 h572q6 60 1 113t-27 92t-66 61t-118 22q-60 0 -119 -24t-107 -63t-84 -92t-52 -109zM328 1264q0 28 18 47t43 31t54 18t51 6t51 -6t54 -18t43 -31t18 -47t-18 -47t-43 -31t-54 -18t-51 -6t-51 6t-54 18t-43 31t-18 47zM820 1264q0 28 18 47t43 31t53 18t50 6t51 -6t54 -18 t43 -31t18 -47t-18 -47t-43 -31t-54 -18t-51 -6t-50 6t-53 18t-43 31t-18 47z" />
<glyph unicode="&#xec;" d="M-186 1314l122 188l500 -272l-80 -122zM102 -16q10 14 20 66t17 124t13 155t11 158t7 134t2 81v48t-4 75t-12 72t-22 39l352 -2q-10 -2 -15 -17t-9 -23q-14 -50 -21 -121t-10 -148t-4 -149t-1 -126v-73t3 -117t9 -113t18 -63h-354z" />
<glyph unicode="&#xed;" d="M102 -16q10 14 20 66t17 124t13 155t11 158t7 134t2 81v48t-4 75t-12 72t-22 39l352 -2q-10 -2 -15 -17t-9 -23q-14 -50 -21 -121t-10 -148t-4 -149t-1 -126v-73t3 -117t9 -113t18 -63h-354zM162 1250l502 272l120 -188l-540 -206z" />
<glyph unicode="&#xee;" d="M-80 1138q14 8 47 37t68 62t66 65t45 46q2 2 14 15t25 26t23 25t8 16h230q-2 -4 4 -11t6 -9q14 -16 54 -58t86 -88t87 -83t55 -43h-242q-4 8 -28 34t-53 57t-56 58t-35 37q-42 -42 -78 -89t-72 -97h-254zM102 -16q10 14 20 66t17 124t13 155t11 158t7 134t2 81v48t-4 75 t-12 72t-22 39l352 -2q-10 -2 -15 -17t-9 -23q-14 -50 -21 -121t-10 -148t-4 -149t-1 -126v-73t3 -117t9 -113t18 -63h-354z" />
<glyph unicode="&#xef;" d="M-82 1242q0 28 18 47t43 31t54 18t51 6t51 -6t54 -18t43 -31t18 -47t-18 -47t-43 -31t-54 -18t-51 -6t-51 6t-54 18t-43 31t-18 47zM102 -16q10 14 20 66t17 124t13 155t11 158t7 134t2 81v48t-4 75t-12 72t-22 39l352 -2q-10 -2 -15 -17t-9 -23q-14 -50 -21 -121 t-10 -148t-4 -149t-1 -126v-73t3 -117t9 -113t18 -63h-354zM410 1242q0 28 18 47t43 31t53 18t50 6t51 -6t54 -18t43 -31t18 -47t-18 -47t-43 -31t-54 -18t-51 -6t-50 6t-53 18t-43 31t-18 47z" />
<glyph unicode="&#xf0;" horiz-adv-x="1516" d="M62 462q0 134 65 229t165 156t221 89t235 28q76 0 158 -15t160 -43q-40 94 -96 171t-132 147q-34 -16 -83 -39t-98 -47t-87 -45t-50 -33l-90 180q14 0 45 11t66 25t66 29t45 21l32 16q-48 32 -102 62t-112 62v170q236 -66 430 -190q50 26 98 51t89 47t68 39t35 25 l88 -202q-8 0 -29 -6t-51 -18t-65 -27t-71 -31q174 -154 273 -362t99 -468q0 -90 -32 -164t-85 -132t-123 -101t-147 -70t-157 -41t-150 -14q-114 0 -234 26t-219 84t-162 151t-63 229zM362 464q0 -78 35 -132t90 -88t123 -49t134 -15q62 0 130 16t126 50t96 87t38 127 t-36 129t-92 92t-125 55t-133 18q-66 0 -134 -17t-124 -52t-92 -90t-36 -131z" />
<glyph unicode="&#xf1;" horiz-adv-x="1392" d="M112 0q8 12 16 59t14 112t10 139t7 142t4 120t1 72q0 16 -1 67t-5 106t-13 101t-27 52l350 -2l-6 -96q74 54 165 89t185 35q92 0 179 -19t153 -64t106 -117t40 -180q0 -138 -13 -274t-13 -274q0 -46 6 -90h-350q20 32 30 107t15 160t6 164t1 121q0 122 -60 191t-186 69 q-42 0 -81 -15t-74 -39t-66 -54t-55 -60q-6 -174 -6 -348v-55t2 -87t6 -85t14 -47h-354zM396 1298q38 32 91 51t101 19q46 0 82 -12t66 -27t55 -27t49 -12q48 0 105 27t97 55l-6 -180q-44 -24 -99 -38t-101 -14q-52 0 -84 12t-58 27t-52 27t-64 12q-46 0 -97 -33t-81 -67z " />
<glyph unicode="&#xf2;" horiz-adv-x="1496" d="M62 462q0 134 65 229t165 156t221 89t235 28q110 0 232 -31t222 -94t166 -159t66 -226q0 -86 -32 -155t-85 -122t-123 -92t-147 -64t-157 -37t-150 -12q-114 0 -234 26t-219 84t-162 151t-63 229zM362 464q0 -78 35 -132t90 -88t123 -49t134 -15q62 0 130 16t126 50 t96 87t38 127t-36 129t-92 92t-125 55t-133 18q-66 0 -134 -17t-124 -52t-92 -90t-36 -131zM408 1294l122 188l500 -272l-80 -122z" />
<glyph unicode="&#xf3;" horiz-adv-x="1496" d="M62 462q0 134 65 229t165 156t221 89t235 28q110 0 232 -31t222 -94t166 -159t66 -226q0 -86 -32 -155t-85 -122t-123 -92t-147 -64t-157 -37t-150 -12q-114 0 -234 26t-219 84t-162 151t-63 229zM362 464q0 -78 35 -132t90 -88t123 -49t134 -15q62 0 130 16t126 50 t96 87t38 127t-36 129t-92 92t-125 55t-133 18q-66 0 -134 -17t-124 -52t-92 -90t-36 -131zM530 1210l502 272l120 -188l-540 -206z" />
<glyph unicode="&#xf4;" horiz-adv-x="1496" d="M62 462q0 134 65 229t165 156t221 89t235 28q110 0 232 -31t222 -94t166 -159t66 -226q0 -86 -32 -155t-85 -122t-123 -92t-147 -64t-157 -37t-150 -12q-114 0 -234 26t-219 84t-162 151t-63 229zM330 1096q14 8 47 37t68 62t66 65t45 46q2 2 14 15t25 26t23 25t8 16h230 q-2 -4 4 -11t6 -9q14 -16 54 -58t86 -88t87 -83t55 -43h-242q-4 8 -28 34t-53 57t-56 58t-35 37q-42 -42 -78 -89t-72 -97h-254zM362 464q0 -78 35 -132t90 -88t123 -49t134 -15q62 0 130 16t126 50t96 87t38 127t-36 129t-92 92t-125 55t-133 18q-66 0 -134 -17t-124 -52 t-92 -90t-36 -131z" />
<glyph unicode="&#xf5;" horiz-adv-x="1496" d="M62 462q0 134 65 229t165 156t221 89t235 28q110 0 232 -31t222 -94t166 -159t66 -226q0 -86 -32 -155t-85 -122t-123 -92t-147 -64t-157 -37t-150 -12q-114 0 -234 26t-219 84t-162 151t-63 229zM362 464q0 -78 35 -132t90 -88t123 -49t134 -15q62 0 130 16t126 50 t96 87t38 127t-36 129t-92 92t-125 55t-133 18q-66 0 -134 -17t-124 -52t-92 -90t-36 -131zM456 1278q38 32 91 51t101 19q46 0 82 -12t66 -27t55 -27t49 -12q48 0 105 27t97 55l-6 -180q-44 -24 -99 -38t-101 -14q-52 0 -84 12t-58 27t-52 27t-64 12q-46 0 -97 -33t-81 -67 z" />
<glyph unicode="&#xf6;" horiz-adv-x="1496" d="M62 462q0 134 65 229t165 156t221 89t235 28q110 0 232 -31t222 -94t166 -159t66 -226q0 -86 -32 -155t-85 -122t-123 -92t-147 -64t-157 -37t-150 -12q-114 0 -234 26t-219 84t-162 151t-63 229zM348 1242q0 28 18 47t43 31t54 18t51 6t51 -6t54 -18t43 -31t18 -47 t-18 -47t-43 -31t-54 -18t-51 -6t-51 6t-54 18t-43 31t-18 47zM362 464q0 -78 35 -132t90 -88t123 -49t134 -15q62 0 130 16t126 50t96 87t38 127t-36 129t-92 92t-125 55t-133 18q-66 0 -134 -17t-124 -52t-92 -90t-36 -131zM840 1242q0 28 18 47t43 31t53 18t50 6t51 -6 t54 -18t43 -31t18 -47t-18 -47t-43 -31t-54 -18t-51 -6t-50 6t-53 18t-43 31t-18 47z" />
<glyph unicode="&#xf7;" horiz-adv-x="1064" d="M40 738q16 -6 54 -9t82 -4t83 -1h57q24 0 81 1t131 2t155 4t152 6t122 8t67 11l-6 -246q-10 6 -47 10t-89 6t-112 3t-114 2t-96 1h-58h-93t-140 -1t-138 -5t-85 -10zM368 326q0 28 18 47t43 31t54 18t51 6t51 -6t54 -18t43 -31t18 -47t-18 -47t-43 -31t-54 -18t-51 -6 t-51 6t-54 18t-43 31t-18 47zM368 934q0 28 18 47t43 31t54 18t51 6t51 -6t54 -18t43 -31t18 -47t-18 -47t-43 -31t-54 -18t-51 -6t-51 6t-54 18t-43 31t-18 47z" />
<glyph unicode="&#xf8;" horiz-adv-x="1468" d="M62 462q0 132 63 225t162 152t217 87t230 28q22 0 42 -1t40 -3q8 20 18 56t10 56q0 8 -2 10h316q-10 0 -27 -25t-34 -55t-31 -59t-18 -37q74 -28 139 -69t114 -96t78 -124t29 -153q0 -126 -67 -215t-169 -146t-221 -84t-223 -27h-46q-8 -20 -18 -57t-10 -59q0 -6 2 -10 h-320q8 2 23 26t30 53t28 55l17 34q-78 24 -146 63t-118 93t-79 124t-29 158zM340 464q0 -90 51 -151t133 -93q58 132 114 265t108 267h-12q-66 2 -135 -14t-127 -51t-95 -90t-37 -133zM750 182q60 2 126 20t123 51t94 84t37 123q0 86 -48 146t-124 96q-56 -130 -108 -259 t-100 -261z" />
<glyph unicode="&#xf9;" horiz-adv-x="1372" d="M112 376q0 134 13 266t13 266q0 22 -1 44t-5 44h338q-20 -34 -30 -108t-15 -158t-6 -163t-1 -123q0 -76 12 -126t41 -80t79 -42t126 -12q42 0 81 15t75 39t66 54t54 60q4 88 6 174t2 174v59t-2 85t-7 81t-13 49h352q-8 -14 -15 -60t-13 -109t-10 -137t-7 -141t-4 -120 t-1 -77v-71t5 -105t14 -98t27 -52l-352 2l8 96q-76 -54 -166 -89t-184 -35t-181 23t-153 71t-106 123t-40 181zM386 1314l122 188l500 -272l-80 -122z" />
<glyph unicode="&#xfa;" horiz-adv-x="1372" d="M112 376q0 134 13 266t13 266q0 22 -1 44t-5 44h338q-20 -34 -30 -108t-15 -158t-6 -163t-1 -123q0 -76 12 -126t41 -80t79 -42t126 -12q42 0 81 15t75 39t66 54t54 60q4 88 6 174t2 174v59t-2 85t-7 81t-13 49h352q-8 -14 -15 -60t-13 -109t-10 -137t-7 -141t-4 -120 t-1 -77v-71t5 -105t14 -98t27 -52l-352 2l8 96q-76 -54 -166 -89t-184 -35t-181 23t-153 71t-106 123t-40 181zM510 1210l502 272l120 -188l-540 -206z" />
<glyph unicode="&#xfb;" horiz-adv-x="1372" d="M112 376q0 134 13 266t13 266q0 22 -1 44t-5 44h338q-20 -34 -30 -108t-15 -158t-6 -163t-1 -123q0 -76 12 -126t41 -80t79 -42t126 -12q42 0 81 15t75 39t66 54t54 60q4 88 6 174t2 174v59t-2 85t-7 81t-13 49h352q-8 -14 -15 -60t-13 -109t-10 -137t-7 -141t-4 -120 t-1 -77v-71t5 -105t14 -98t27 -52l-352 2l8 96q-76 -54 -166 -89t-184 -35t-181 23t-153 71t-106 123t-40 181zM310 1158q14 8 47 37t68 62t66 65t45 46q2 2 14 15t25 26t23 25t8 16h230q-2 -4 4 -11t6 -9q14 -16 54 -58t86 -88t87 -83t55 -43h-242q-4 8 -28 34t-53 57 t-56 58t-35 37q-42 -42 -78 -89t-72 -97h-254z" />
<glyph unicode="&#xfc;" horiz-adv-x="1372" d="M112 376q0 134 13 266t13 266q0 22 -1 44t-5 44h338q-20 -34 -30 -108t-15 -158t-6 -163t-1 -123q0 -76 12 -126t41 -80t79 -42t126 -12q42 0 81 15t75 39t66 54t54 60q4 88 6 174t2 174v59t-2 85t-7 81t-13 49h352q-8 -14 -15 -60t-13 -109t-10 -137t-7 -141t-4 -120 t-1 -77v-71t5 -105t14 -98t27 -52l-352 2l8 96q-76 -54 -166 -89t-184 -35t-181 23t-153 71t-106 123t-40 181zM328 1284q0 28 18 47t43 31t54 18t51 6t51 -6t54 -18t43 -31t18 -47t-18 -47t-43 -31t-54 -18t-51 -6t-51 6t-54 18t-43 31t-18 47zM820 1284q0 28 18 47t43 31 t53 18t50 6t51 -6t54 -18t43 -31t18 -47t-18 -47t-43 -31t-54 -18t-51 -6t-50 6t-53 18t-43 31t-18 47z" />
<glyph unicode="&#xfd;" horiz-adv-x="1332" d="M72 994l364 -2q-16 -26 -29 -76t-21 -106t-12 -109t-4 -85q0 -80 11 -148t43 -119t87 -80t143 -29q36 0 82 6t88 23t74 45t38 72q6 36 6 73v71q0 30 -3 101t-9 146t-17 140t-27 83l354 4q-8 -12 -12 -56t-6 -95t-2 -98v-65q0 -164 2 -327t2 -325q0 -124 -55 -217 t-143 -154t-198 -91t-220 -30q-122 0 -243 2t-241 4l20 232q30 -12 85 -23t115 -18t116 -11t92 -4q94 0 168 16t126 55t80 107t28 170q0 18 -1 37t-3 37q-80 -58 -176 -86t-194 -28q-144 0 -239 45t-151 124t-79 188t-23 237q0 62 4 124t4 124q0 28 -3 61t-21 55zM530 1230 l502 272l120 -188l-540 -206z" />
<glyph unicode="&#xfe;" horiz-adv-x="1478" d="M72 -424q12 26 21 129t17 247t14 310t10 318t6 271t2 169v51t-1 78t-3 90t-6 87t-11 70t-17 38l386 -2q-12 -10 -20 -56t-15 -111t-13 -140t-9 -145t-6 -124t-3 -78q90 54 195 80t211 26q72 0 151 -12t153 -39t137 -73t103 -112q52 -86 52 -182q0 -78 -40 -143t-100 -116 t-132 -88t-136 -57q-136 -42 -276 -42q-88 0 -173 17t-161 57v-128v-84t2 -120t6 -115t14 -71h-358zM412 410q0 -12 6 -32t12 -30q20 -46 54 -75t76 -46t88 -23t90 -6q50 0 102 8t100 27t88 49t68 74q36 58 36 118q0 68 -35 116t-87 76t-116 41t-120 13q-46 0 -94 -8 t-92 -26t-82 -48t-64 -72q-10 -16 -17 -34t-11 -36q-2 -12 -2 -25v-25v-36z" />
<glyph unicode="&#xff;" horiz-adv-x="1332" d="M72 994l364 -2q-16 -26 -29 -76t-21 -106t-12 -109t-4 -85q0 -80 11 -148t43 -119t87 -80t143 -29q36 0 82 6t88 23t74 45t38 72q6 36 6 73v71q0 30 -3 101t-9 146t-17 140t-27 83l354 4q-8 -12 -12 -56t-6 -95t-2 -98v-65q0 -164 2 -327t2 -325q0 -124 -55 -217 t-143 -154t-198 -91t-220 -30q-122 0 -243 2t-241 4l20 232q30 -12 85 -23t115 -18t116 -11t92 -4q94 0 168 16t126 55t80 107t28 170q0 18 -1 37t-3 37q-80 -58 -176 -86t-194 -28q-144 0 -239 45t-151 124t-79 188t-23 237q0 62 4 124t4 124q0 28 -3 61t-21 55zM266 1284 q0 28 18 47t43 31t54 18t51 6t51 -6t54 -18t43 -31t18 -47t-18 -47t-43 -31t-54 -18t-51 -6t-51 6t-54 18t-43 31t-18 47zM758 1284q0 28 18 47t43 31t53 18t50 6t51 -6t54 -18t43 -31t18 -47t-18 -47t-43 -31t-54 -18t-51 -6t-50 6t-53 18t-43 31t-18 47z" />
<glyph unicode="&#x152;" horiz-adv-x="3018" d="M52 718q0 188 76 330t201 238t285 144t328 48q156 0 316 -53t286 -147q0 12 -3 37t-7 52t-10 50t-14 33q-12 12 -28 24l1452 -4l-22 -222q-10 4 -50 7t-95 4t-118 2t-120 1h-101h-60q-256 0 -514 -6q-10 -100 -13 -199t-3 -201l920 10v-214q-10 4 -41 6t-73 3t-90 2 t-91 1h-77h-48q-252 0 -500 -6q0 -90 -2 -179t-2 -179v-80q142 -6 283 -6h283h60h101t120 1t118 2t95 3t50 6l22 -222l-1452 -4q8 10 14 32t9 47t5 48t2 35q-64 -46 -138 -81t-153 -59t-160 -36t-159 -12q-172 0 -331 46t-282 138t-196 232t-73 328zM398 720q0 -114 41 -214 t113 -175t170 -118t214 -43q108 0 207 44t175 118t122 173t46 207t-43 211t-118 182t-174 128t-209 49q-112 0 -211 -46t-173 -123t-117 -179t-43 -214z" />
<glyph unicode="&#x153;" horiz-adv-x="2378" d="M62 462q0 132 63 225t162 152t217 87t230 28q68 0 142 -12t146 -37t136 -61t116 -84q50 68 115 117t139 80t155 46t165 15q108 0 191 -35t139 -97t85 -149t29 -191q0 -48 -6 -95t-22 -93h-846q18 -64 62 -104t101 -63t120 -32t121 -9q36 0 93 5t116 16t112 27t81 40 l92 -164q-132 -50 -259 -77t-269 -27q-66 0 -138 12t-140 35t-130 59t-110 84q-52 -46 -118 -79t-137 -55t-145 -33t-142 -11q-112 0 -230 25t-215 82t-159 149t-62 224zM340 464q0 -78 36 -131t93 -87t126 -49t135 -15q62 0 132 16t130 49t99 86t39 127t-38 129t-96 91 t-128 54t-134 18t-134 -16t-128 -51t-95 -89t-37 -132zM1416 536h590q2 16 2 33v33q0 118 -49 178t-171 60q-64 0 -124 -25t-110 -67t-87 -97t-51 -115z" />
<glyph unicode="&#x178;" horiz-adv-x="1278" d="M-358 1474q120 0 237 -1t237 1q-8 -4 -8 -18q0 -30 34 -88t86 -131t116 -153t124 -152t110 -128t74 -82h10q24 26 73 82t110 128t124 152t116 153t86 131t33 88q0 12 -8 18q118 -2 235 -1t235 1q-36 -20 -104 -89t-152 -165t-176 -208t-176 -217l-152 -190t-102 -129 q-2 -42 -2 -84v-86v-64t3 -95t9 -92t20 -55h-366q10 10 17 46t11 85t5 105t2 106t1 89v55q-34 42 -102 127t-153 188t-177 215t-176 207t-152 164t-102 87zM246 1712q0 28 18 47t43 31t54 18t51 6t51 -6t54 -18t43 -31t18 -47t-18 -47t-43 -31t-54 -18t-51 -6t-51 6t-54 18 t-43 31t-18 47zM738 1712q0 28 18 47t43 31t53 18t50 6t51 -6t54 -18t43 -31t18 -47t-18 -47t-43 -31t-54 -18t-51 -6t-50 6t-53 18t-43 31t-18 47z" />
<glyph unicode="&#x2c6;" horiz-adv-x="1844" d="M512 1238q14 8 47 37t68 62t66 65t45 46q2 2 14 15t25 26t23 25t8 16h230q-2 -4 4 -11t6 -9q14 -16 54 -58t86 -88t87 -83t55 -43h-242q-4 8 -28 34t-53 57t-56 58t-35 37q-42 -42 -78 -89t-72 -97h-254z" />
<glyph unicode="&#x2dc;" horiz-adv-x="1844" d="M598 1440q38 32 91 51t101 19q46 0 82 -12t66 -27t55 -27t49 -12q48 0 105 27t97 55l-6 -180q-44 -24 -99 -38t-101 -14q-52 0 -84 12t-58 27t-52 27t-64 12q-46 0 -97 -33t-81 -67z" />
<glyph unicode="&#x2000;" horiz-adv-x="1006" />
<glyph unicode="&#x2001;" horiz-adv-x="2012" />
<glyph unicode="&#x2002;" horiz-adv-x="1006" />
<glyph unicode="&#x2003;" horiz-adv-x="2012" />
<glyph unicode="&#x2004;" horiz-adv-x="670" />
<glyph unicode="&#x2005;" horiz-adv-x="503" />
<glyph unicode="&#x2006;" horiz-adv-x="335" />
<glyph unicode="&#x2007;" horiz-adv-x="335" />
<glyph unicode="&#x2008;" horiz-adv-x="251" />
<glyph unicode="&#x2009;" horiz-adv-x="402" />
<glyph unicode="&#x200a;" horiz-adv-x="111" />
<glyph unicode="&#x2010;" horiz-adv-x="1020" d="M40 738q14 -6 51 -9t79 -4t79 -1h55q22 0 77 1t125 2t147 4t145 6t117 8t63 11l-6 -246q-8 6 -44 10t-85 6t-107 3t-109 2t-91 1h-54h-90t-134 -1t-131 -5t-81 -10z" />
<glyph unicode="&#x2011;" horiz-adv-x="1020" d="M40 738q14 -6 51 -9t79 -4t79 -1h55q22 0 77 1t125 2t147 4t145 6t117 8t63 11l-6 -246q-8 6 -44 10t-85 6t-107 3t-109 2t-91 1h-54h-90t-134 -1t-131 -5t-81 -10z" />
<glyph unicode="&#x2012;" horiz-adv-x="1020" d="M40 738q14 -6 51 -9t79 -4t79 -1h55q22 0 77 1t125 2t147 4t145 6t117 8t63 11l-6 -246q-8 6 -44 10t-85 6t-107 3t-109 2t-91 1h-54h-90t-134 -1t-131 -5t-81 -10z" />
<glyph unicode="&#x2013;" horiz-adv-x="1020" d="M40 738q14 -6 51 -9t79 -4t79 -1h55q22 0 77 1t125 2t147 4t145 6t117 8t63 11l-6 -246q-8 6 -44 10t-85 6t-107 3t-109 2t-91 1h-54h-90t-134 -1t-131 -5t-81 -10z" />
<glyph unicode="&#x2014;" horiz-adv-x="1838" d="M40 746q22 -8 89 -11t144 -4t147 -1h96q260 0 516 3t516 13q14 0 50 2t76 3t76 4t48 7l-6 -246q-12 6 -79 10t-163 6t-208 4t-212 3t-175 1h-99q-304 0 -606 -6q-18 0 -46 -1t-57 -2t-56 -3t-45 -6z" />
<glyph unicode="&#x2018;" horiz-adv-x="568" d="M40 1530l288 52q2 -18 9 -41t16 -48t17 -48t14 -41l60 -180t62 -180l-170 -22q-8 14 -30 55t-51 94t-62 111t-63 110t-54 90t-36 48z" />
<glyph unicode="&#x2019;" horiz-adv-x="548" d="M40 1044q32 90 63 180t61 180q6 18 14 41t17 48t15 48t10 41l286 -52q-12 -10 -35 -48t-54 -90t-64 -110t-62 -111t-50 -94t-29 -55z" />
<glyph unicode="&#x201a;" horiz-adv-x="548" d="M40 -296q32 90 63 180t61 180q6 18 14 41t17 48t15 48t10 41l286 -52q-12 -10 -35 -48t-54 -89t-64 -110t-62 -112t-50 -93t-29 -54z" />
<glyph unicode="&#x201c;" horiz-adv-x="932" d="M40 1530l288 52q2 -18 9 -41t16 -48t17 -48t14 -41l60 -180t62 -180l-170 -22q-8 14 -30 55t-51 94t-62 111t-63 110t-54 90t-36 48zM404 1530l288 52q2 -18 9 -41t15 -48t17 -48t15 -41l60 -180t62 -180l-170 -22q-8 14 -30 55t-51 94t-62 111t-63 110t-54 90t-36 48z " />
<glyph unicode="&#x201d;" horiz-adv-x="912" d="M40 1044q32 90 63 180t61 180q6 18 14 41t17 48t15 48t10 41l286 -52q-12 -10 -35 -48t-54 -90t-64 -110t-62 -111t-50 -94t-29 -55zM404 1044q32 90 63 180t61 180q6 18 14 41t16 48t15 48t11 41l286 -52q-12 -10 -36 -48t-54 -90t-63 -110t-62 -111t-50 -94t-29 -55z " />
<glyph unicode="&#x201e;" horiz-adv-x="912" d="M40 -296q32 90 63 180t61 180q6 18 14 41t17 48t15 48t10 41l286 -52q-12 -10 -35 -48t-54 -89t-64 -110t-62 -112t-50 -93t-29 -54zM404 -296q32 90 63 180t61 180q6 18 14 41t16 48t15 48t11 41l286 -52q-12 -10 -36 -48t-54 -89t-63 -110t-62 -112t-50 -93t-29 -54z " />
<glyph unicode="&#x2022;" horiz-adv-x="744" d="M62 686q0 52 33 88t81 59t102 33t94 10t94 -10t102 -33t81 -59t33 -88t-33 -88t-81 -59t-102 -33t-94 -10t-94 10t-102 33t-81 59t-33 88z" />
<glyph unicode="&#x2026;" horiz-adv-x="1272" d="M40 100q0 28 18 47t43 31t54 18t51 6t51 -6t54 -18t43 -31t18 -47t-18 -47t-43 -31t-54 -18t-51 -6t-51 6t-54 18t-43 31t-18 47zM470 100q0 28 18 47t43 31t54 18t51 6t51 -6t54 -18t43 -31t18 -47t-18 -47t-43 -31t-54 -18t-51 -6t-51 6t-54 18t-43 31t-18 47zM900 100 q0 28 18 47t43 31t54 18t51 6t51 -6t54 -18t43 -31t18 -47t-18 -47t-43 -31t-54 -18t-51 -6t-51 6t-54 18t-43 31t-18 47z" />
<glyph unicode="&#x202f;" horiz-adv-x="402" />
<glyph unicode="&#x2039;" horiz-adv-x="508" d="M20 284v180q6 -4 17 3t15 9q14 10 48 34t76 56t88 68t85 69t66 59t33 38v-226q-12 -4 -50 -33t-83 -64t-85 -67t-54 -44q64 -54 133 -97t139 -87v-238q-8 10 -40 40t-76 67t-95 78t-95 76t-77 57t-39 22h-6z" />
<glyph unicode="&#x203a;" horiz-adv-x="508" d="M62 -56v238q70 44 139 87t133 97q-14 12 -54 44t-85 67t-84 64t-49 33v226q6 -12 33 -38t66 -59t84 -69t87 -68t76 -56t48 -34q4 -2 16 -9t16 -3v-180h-4q-8 0 -40 -22t-77 -57t-95 -76t-95 -78t-77 -67t-38 -40z" />
<glyph unicode="&#x205f;" horiz-adv-x="503" />
<glyph unicode="&#x20ac;" horiz-adv-x="1710" d="M20 682q20 -6 52 -9t65 -3h65h54q4 30 10 60t16 58h-58t-70 -1t-70 -3t-56 -6l-8 160q20 -6 67 -9t98 -3h98h71q66 94 156 166t194 121t218 74t226 25q90 0 182 -14t168 -53t124 -107t48 -178q0 -40 -7 -79t-19 -79h-298q28 38 52 84t24 92q0 54 -35 88t-86 54t-107 28 t-96 8q-138 0 -263 -59t-209 -169q102 2 203 4t203 6q38 2 94 2t92 10l-76 -176q-8 4 -51 7t-104 5t-131 2t-134 1t-111 1h-63q-22 -60 -22 -118q102 2 200 4t200 6q20 0 45 1t51 2t51 3t43 6l-76 -176q-8 4 -43 6t-84 4t-106 3t-108 1t-89 1t-52 1q32 -56 89 -93t125 -58 t138 -30t128 -9q126 0 250 21t244 55l60 -158q-64 -22 -136 -37t-147 -24t-150 -14t-143 -5q-92 0 -208 16t-225 57t-195 108t-118 169h-56t-66 -1t-66 -3t-54 -6z" />
<glyph unicode="&#x25fc;" horiz-adv-x="980" d="M0 0v980h980v-980h-980z" />
<glyph unicode="&#xfb01;" horiz-adv-x="1488" d="M-10 866q14 -4 46 -6t67 -3t68 -2t49 -1l-4 68t-2 68q0 150 58 294q46 108 116 184t158 123t191 69t217 22q98 0 181 -20t143 -65t94 -118t34 -177q0 -36 -6 -77t-14 -80t-13 -73t-5 -58l-316 60q12 16 20 43t13 57t8 58t3 48q0 106 -51 172t-165 66q-88 0 -156 -42 t-115 -108t-72 -148t-25 -160q0 -52 -1 -103t-1 -103q218 2 437 13t437 25q-10 -14 -16 -50t-10 -84t-7 -103t-5 -106t-2 -91v-58v-47t1 -77t4 -92t7 -90t10 -72t14 -38h-362q10 14 19 61t16 111t13 138t10 141t6 118t2 73v35t-2 33q-114 2 -226 3t-226 1h-122v-134v-58 v-102t2 -123t4 -120t6 -95t10 -46h-322q8 6 12 49t6 95t2 99v59q0 94 -2 186t-4 186h-51t-63 -1t-62 -3t-50 -6z" />
<glyph unicode="&#xfb02;" horiz-adv-x="1558" d="M-10 908q16 -6 47 -8t66 -3t67 -1h50q-2 22 -4 46t-2 48q0 150 58 294q46 108 116 184t158 123t191 69t217 22q120 0 203 -38t136 -103t82 -151t42 -180t15 -192t2 -186q0 -126 -6 -249t-16 -249q-4 -74 -11 -148t-7 -148q0 -10 1 -28t9 -28h-338q10 14 19 81t17 163 t14 211t11 222t7 195t2 134q0 74 -1 166t-22 173t-75 136t-158 55q-88 0 -156 -42t-115 -108t-72 -148t-25 -160q0 -40 -1 -81t-1 -81q26 0 85 2t125 5t123 7t77 10l-6 -202q-12 6 -70 10t-126 5t-129 2t-81 1v-134v-61v-110t2 -133t4 -130t6 -102t10 -48h-322q8 6 12 53 t6 104t2 109v64q0 192 -6 388h-52t-62 -1t-62 -3t-50 -8z" />
</font>
</defs>
</svg>
